<?xml version="1.0" encoding="UTF-8"?>
<svg id="Layer_2" data-name="Layer 2" xmlns="http://www.w3.org/2000/svg" viewBox="0 0 179.59 216.38">
  <defs>
    <style>
      .cls-1 {
        fill: #fff;
      }

      .cls-2 {
        fill: #fc862b;
      }
    </style>
  </defs>
  <g id="Layer_1-2" data-name="Layer 1">
    <path class="cls-2" d="m89.79,0s-28.92,32.44-28.81,74.78c0,0-26.48,13.79-13.05,56.55l20.03-21.96c2.33,5.64,5.35,11.34,9.12,17.06h25.42c3.79-5.74,6.81-11.46,9.14-17.11l20.02,21.95c13.43-42.77-13.07-56.74-13.07-56.74-.02-42.21-28.8-74.53-28.8-74.53Zm-9.91,64.96c0-5.44,4.42-9.86,9.82-9.86,5.44,0,9.86,4.41,9.86,9.86s-4.42,9.81-9.86,9.82c-5.4,0-9.81-4.42-9.82-9.82Z"/>
    <path class="cls-1" d="m179.59,127.57c0,42.92-30.07,78.74-70.27,87.66v-12.42s0-6.77,0-6.77v-54.82h18.76v46.39c19.81-12.65,32.92-34.79,32.92-60.04,0-18.52-7.05-35.37-18.65-48.05v-24.73c22.57,16.27,37.25,42.83,37.25,72.78Z"/>
    <path class="cls-1" d="m18.6,127.57c0,25.25,13.12,47.39,32.92,60.04v-46.39h18.76v74.01C30.07,206.31,0,170.49,0,127.57c0-29.95,14.68-56.51,37.25-72.78v24.73c-11.6,12.67-18.64,29.53-18.65,48.05Z"/>
    <rect class="cls-2" x="82.53" y="141.29" width="12.49" height="75.09"/>
  </g>
</svg>