<?xml version="1.0" encoding="UTF-8"?>
<svg xmlns="http://www.w3.org/2000/svg" viewBox="0 0 937.43 819.63">
  <defs>
    <style>
      .cls-1 {
        fill: #684743;
      }

      .cls-2 {
        fill: #2e2a29;
      }

      .cls-3 {
        mix-blend-mode: multiply;
        opacity: .4;
      }

      .cls-4 {
        fill: #e8e2dd;
      }

      .cls-5 {
        fill: #1e1316;
      }

      .cls-6 {
        fill: #fff;
      }

      .cls-7 {
        fill: #16100f;
      }

      .cls-8 {
        fill: #ffb278;
      }

      .cls-9 {
        fill: #075975;
      }

      .cls-10 {
        fill: #dadaef;
      }

      .cls-11 {
        fill: #313944;
      }

      .cls-12 {
        fill: #d8250e;
      }

      .cls-13 {
        fill: #095e7c;
      }

      .cls-14 {
        fill: #3f1411;
      }

      .cls-15 {
        fill: #e2e2e2;
      }

      .cls-16 {
        fill: #aa160b;
      }

      .cls-17 {
        fill: #3f2935;
      }

      .cls-18 {
        fill: #bababa;
      }

      .cls-19 {
        isolation: isolate;
      }

      .cls-20 {
        fill: #47722b;
      }

      .cls-21 {
        fill: #f9dd50;
      }

      .cls-22 {
        fill: #c7c7dd;
      }

      .cls-23 {
        fill: #fffbf8;
      }

      .cls-24 {
        fill: #e2c5b7;
      }

      .cls-25 {
        fill: #23161e;
      }

      .cls-26 {
        fill: #e2231a;
      }

      .cls-27 {
        fill: #f9a56b;
      }

      .cls-28 {
        fill: #f72828;
      }

      .cls-29 {
        fill: #2d221e;
      }

      .cls-30 {
        fill: #e52323;
      }

      .cls-31 {
        fill: #260f0e;
      }

      .cls-32 {
        fill: #69999e;
      }

      .cls-33 {
        fill: #18181e;
      }

      .cls-34 {
        fill: #140f0e;
      }

      .cls-35 {
        fill: #822316;
      }

      .cls-36 {
        fill: #441e08;
      }

      .cls-37 {
        fill: #4f6177;
      }

      .cls-38 {
        fill: #68300b;
      }

      .cls-39 {
        fill: #3b3348;
      }

      .cls-40 {
        fill: #160808;
      }

      .cls-41 {
        fill: #601e13;
      }

      .cls-42 {
        fill: #f72e1e;
      }

      .cls-43 {
        fill: #176e82;
      }

      .cls-44 {
        fill: #a18bbc;
      }

      .cls-45 {
        fill: #0e0e11;
      }

      .cls-46 {
        fill: #6baa43;
      }

      .cls-47 {
        fill: #ad4b14;
      }

      .cls-48 {
        fill: #ba562f;
      }

      .cls-49 {
        fill: #084b63;
      }

      .cls-50 {
        fill: #617695;
      }

      .cls-51 {
        fill: #f5dfd4;
      }

      .cls-52 {
        fill: #d86f41;
      }

      .cls-53 {
        fill: #1e1714;
      }

      .cls-54 {
        fill: #bacae0;
      }

      .cls-55 {
        fill: #d88d5b;
      }

      .cls-56 {
        fill: #125a66;
      }

      .cls-57 {
        fill: #0b8bb7;
      }

      .cls-58 {
        fill: #ebc2ab;
      }

      .cls-59 {
        fill: #f92828;
      }

      .cls-60 {
        fill: #3d2726;
      }

      .cls-61 {
        fill: #301f23;
      }

      .cls-62 {
        fill: #423d3c;
      }

      .cls-63 {
        fill: #f8f8ff;
      }

      .cls-64 {
        fill: #384150;
      }

      .cls-65 {
        fill: #1c92a5;
      }

      .cls-66 {
        fill: #2f4c1c;
      }

      .cls-67 {
        fill: #140d0f;
      }

      .cls-68 {
        fill: #e5804e;
      }

      .cls-69 {
        fill: #e25b00;
      }

      .cls-70 {
        fill: #73504a;
      }

      .cls-71 {
        fill: #e59e00;
      }

      .cls-72 {
        fill: #3f1616;
      }

      .cls-73 {
        fill: #086a97;
      }
    </style>
  </defs>
  <g class="cls-19">
    <g id="Layer_2" data-name="Layer 2">
      <g id="Layer_1-2" data-name="Layer 1">
        <path class="cls-58" d="m937.43,810.5c0,5.04-209.85,9.12-468.71,9.12S0,815.54,0,810.5s209.85-9.13,468.71-9.13,468.71,4.09,468.71,9.13Z"/>
        <g>
          <path class="cls-34" d="m788.26,140.64c13.89,2.41,31.46,1.57,44.16,9.88,14.11,9.22,16.97,34.98,20.21,50.01,7.22,33.49,12.07,68.05,16.68,101.99,3.11,22.91,10.23,56.36-1.68,77.63-17.41,31.08-75.31,34.63-105.61,26.07-39.4-11.13-42.89-55.48-42.61-89.75-.36-.97-.32.63-.77.84l69.62-176.66Z"/>
          <g>
            <g>
              <path class="cls-61" d="m607,809.29c5,3.53,40.77,2.8,52.13.92.03,0,.07-.01.1-.02,1.85-.31,3.13-.66,3.66-1.05.04-.03.08-.06.11-.09,1.5-1.47,1.08-7.44-.16-14.59-1.99-11.47-6.1-25.97-7.72-29.64l-15.77,2.01c-9.77,24.43-36.66,26.72-32.33,42.45Z"/>
              <path class="cls-67" d="m662.99,809.05s-.07.06-.11.09c-.52.38-1.81.74-3.65,1.05-.04,0-.07.01-.1.02-11.35,1.88-47.13,2.61-52.12-.92-.71-2.56-.58-4.77.16-6.77.05.27.12.55.2.83,4.99,3.53,40.77,2.8,52.12.92.03,0,.06-.01.1-.02,1.84-.31,3.13-.66,3.65-1.05.01,0,.28-.08.66-.17.16,3.01-.08,5.2-.91,6.01Z"/>
              <path class="cls-55" d="m662.42,721.5l-25.65-12.36c.69,17.88-.68,67.81,1.05,71.3,0,0,7.58,2.3,10.86.52,6.7-3.63,14.86-48.18,13.75-59.47Z"/>
              <path class="cls-61" d="m638.04,759.65c-8.27.39-11.15,3.75-9.2,10.89.91,3.32,4.03,17.07,1.12,18.01l16.18.49c2.96-8.4,8.75-30.19-8.1-29.39Z"/>
            </g>
            <g>
              <path class="cls-61" d="m816.99,809.81c-.92.65-2.68,1.14-5.02,1.49-10.41,1.57-32.23.45-41.5-1.09-.03,0-.07-.01-.1-.02-.78-.13-1.47-.27-2.03-.42-.77-.2-1.32-.41-1.62-.63-.04-.03-.08-.07-.11-.09-.84-.82-1.08-3.05-.91-6.12.03-.48.06-.97.11-1.49.18-2.08.52-4.46.96-6.98,2-11.48,6.1-25.97,7.73-29.64l15.77,2.01c4.54,11.34,11.55,18.02,17.33,23.5,4.97,4.7,9.02,8.52,9.83,13.63.28,1.76.17,3.69-.43,5.85Z"/>
              <path class="cls-67" d="m816.99,809.81c-.92.65-2.68,1.14-5.02,1.49-12.47,1.02-33.63-.04-43.09-1.44-.04,0-.07-.01-.11-.02-.15-.02-.29-.05-.43-.07-.77-.2-1.32-.41-1.62-.63-.04-.03-.08-.07-.11-.09-.84-.82-1.08-3.05-.91-6.12,1.16.07,2.3.15,3.06.27.04,0,.07.01.11.02,11.05,1.64,38.05,2.8,48.54.74.28,1.76.17,3.69-.43,5.85Z"/>
              <path class="cls-55" d="m767.18,721.5l25.65-12.36c-.69,17.88.68,67.81-1.05,71.3,0,0-7.58,2.3-10.86.52-6.7-3.63-14.86-48.18-13.75-59.47Z"/>
              <path class="cls-61" d="m791.56,759.65c8.27.39,11.15,3.75,9.2,10.89-.91,3.32-4.03,17.07-1.12,18.01l-16.18.49c-2.96-8.4-8.75-30.19,8.1-29.39Z"/>
            </g>
            <path class="cls-43" d="m809.53,409.4c-.04,1.04-.09,2.09-.14,3.16-2.46,56.94-7.88,148.02-6.37,220.72,1.05,50.16-3.11,95.16-6,118.33l-30.37,1.06c-4.98-26.82-13.39-74.93-10.53-117.99,3.84-57.84-7.23-121.74-13.19-182.06-.69-6.99-1.31-13.94-1.84-20.82h0c-.08-1.02-.15-2.04-.22-3.05l.06-1.76v-.33h.01s.09-2.82.09-2.82l1.65-50.46.21-6.49,67.34-3.46c.64,7.9.2,24.27-.71,45.98Z"/>
            <path class="cls-43" d="m629.11,749.32l28.94,2.21c1.26-3.22,2.65-6.82,4.11-10.73,10.13-27.02,24.18-69.04,28.85-106.46,8.12-65.02,31.98-133.62,49.4-198.55.04-.17.09-.34.14-.51l.55-3.47h0s.77-4.86.77-4.86l.51-3.19.03-.18,7.06-44.37.81-5.09-7.58-.72-60.17-5.76c-1.85,6.69-3.66,19.38-5.65,36.19-.12,1.04-.25,2.09-.37,3.16-6.16,53.15-14.09,144.08-30.07,218.62-4.64,21.65-7.57,44.46-9.83,64.86-2.29,20.63-3.89,38.81-5.87,50.89-.51,3.08-1.04,5.77-1.61,7.99Z"/>
            <path class="cls-65" d="m762.33,739.03c-1.18,4.06,1.45,11.02,1.62,15.2l34.1,1.05c1.83-4.44,1.8-11.64,2.08-16.7-12.91.45-26.05,1.06-37.8.44Z"/>
            <path class="cls-54" d="m704.48,370.04c-.05.48-.1.98-.15,1.48-.88,9.03-2.21,22.68-9.9,29.42-5.2,4.56-11.28,6.02-17.5,6.02-.14,0-.28,0-.43,0,.12-1.07.25-2.12.37-3.16,5.56,0,10.93-1.28,15.38-5.19,6.75-5.92,8.01-18.83,8.85-27.38.05-.51.1-1.01.15-1.49l3.23.3Z"/>
            <path class="cls-56" d="m630.73,741.33c5.8-.48,12.18-.2,17.69-.75,2.72-.27,8.31.13,13.75.22,10.13-27.02,24.18-69.04,28.85-106.46,8.12-65.02,31.98-133.62,49.4-198.55.04-.17.09-.34.14-.51l.55-3.47h0s.77-4.86.77-4.86l.51-3.19.03-.18h-12.96c-7.27,9.35-9.7,30.38-12.26,43.14-3.06,15.27-7.69,29.82-13.13,45.31-10.69,30.4-19.67,59.25-22.84,91.06-2.59,25.86-7.38,98.32-44.62,87.37-2.29,20.63-3.89,38.81-5.87,50.89Z"/>
            <path class="cls-54" d="m809.53,409.4c-.04,1.04-.09,2.09-.14,3.16-7.11-.01-14.06-1.46-19.98-5.95-8.92-6.74-10.47-20.42-11.5-29.47-.06-.51-.12-1-.17-1.48l3.23-.35c.06.48.12.98.17,1.49.97,8.53,2.43,21.41,10.27,27.33,5.26,3.97,11.58,5.27,18.12,5.27Z"/>
            <g>
              <path class="cls-65" d="m729.9,427.32l-.4-1.04c-3.82-9.86.84-36.89,4.58-44.98l2.96,1.29c-3.46,7.49-7.63,31.81-4.85,41.54,5.02-.11,8.53-.24,10.44-.41l.29,3.13c-2.16.19-6.05.33-11.87.44l-1.15.02Z"/>
              <path class="cls-65" d="m750.85,379.5c-5.76,24.37-6.98,47.52-7.9,73.11h-.02c-.69-6.99-1.31-13.94-1.84-20.82l-.55,3.47c-.05.17-.09.34-.14.51.15-2.95.32-5.88.51-8.79,0-.11.01-.22.02-.33h0c.06-.95.13-1.89.2-2.83,1.1-15.1,2.95-29.81,6.54-45.03l1.78.39,1.39.31Z"/>
            </g>
            <path class="cls-65" d="m629.82,734.92c-1.18,4.06-2.42,10.42-2.25,14.6l34.64,2.62c1.83-4.44,3.42-11.64,3.71-16.7-12.91.44-24.35.09-36.1-.52Z"/>
          </g>
          <path class="cls-17" d="m830.33,228.33c-4.11,27.83-14.81,69.14-15.4,81.74-.01.24-.02.48-.03.72-.92,20.55.01,50.21-.91,69.76-3.94,12.74-73.04,8.84-110.63,2.47-.23-.04-.45-.08-.67-.12-.22-.04-.44-.08-.66-.12-.36-.06-.72-.13-1.07-.19-11.72-2.1-19.91-4.42-21.28-6.48,0,0,0,0,0,0-.05-.08-.09-.15-.12-.23-.03-.08-.06-.15-.07-.23-1.3-7.59,4.95-29.34,6.46-36.99,3.88-19.56.18-67.04-.3-76.63-.13-2.53-.39-5.13-.78-7.77-.86-5.97-2.32-12.09-4.08-17.82-.46-1.51-.94-3-1.44-4.44-3.2-9.3-8.68-20.09-9.62-29.64-.92-9.35,6.99-45.31,8.49-55,1.43-9.24,31.42-8.55,37.69-15.7l16.05,7.3c5.77-1.61,13.9.93,20.31-.24,5.06-.92,10.11-3.25,14.98-4.7,4.39-1.29,9.05-5.06,13.17-5.71,8.2-1.29,43.29,5.93,50.89,8.6.05.02.1.04.15.06,1.58.57,2.77,2.2,3.66,4.64,5.9,16.28-2.16,68.82-4.8,86.7Z"/>
          <path class="cls-8" d="m709.98,135.14c2.5,9.78,13.45,26.66,28.05,27.24,14.03.56,38.94-16.19,47.74-33.23-4.95-1.1-10.25,1.29-12.65-5.5-1.43-4.03-2.63-5.67-3.23-9.95,0-.03,0-.06-.02-.1-.15-1.06-.29-2.11-.43-3.14-.63-4.54-.7-9.53-.63-14.48.08-5.56.34-11.09.19-15.87-.02-.72-.06-1.42-.1-2.11l-36.34,17.98-15.91,7.87c0,.52.02,1.07.07,1.65.16,1.97.61,4.29,1.15,6.8.77,3.67,1.17,7.12.92,10.24-.45,5.4-2.89,9.79-8.8,12.61Z"/>
          <path class="cls-68" d="m716.65,103.84c0,.52.02,1.07.07,1.65.16,1.97.61,4.29,1.15,6.8.77,3.67,1.17,7.12.92,10.24,8.59,8.62,16.33,9.12,22.56,7.62,15.54-3.73,27.4-29.23,27.47-34.18h-36.26l-15.91,7.87Z"/>
          <path class="cls-25" d="m830.33,228.33c-4.11,27.83-14.81,69.14-15.4,81.74-.01.24-.02.48-.03.72-.92,20.55.01,50.21-.91,69.76-.63,13.4-72.14,9.1-110.63,2.47-.23-.04-.45-.08-.67-.12-.22-.04-.44-.08-.66-.12-.36-.06-.72-.13-1.07-.19-11.71-2.13-19.89-4.45-21.28-6.48,0,0,0,0,0,0-.05-.08-.09-.15-.12-.23-.03-.08-.06-.15-.07-.23-1.3-7.59,4.95-29.34,6.46-36.99,3.88-19.56.18-67.04-.3-76.63-.13-2.53-.39-5.13-.78-7.77-.86-5.97-2.32-12.09-4.08-17.82,9.23,5.3,45.71,14.46,59.53,16.14,49.64,6.01,73.83-25.74,77.82-38.51,6.59-21.11,11.67-49.06,16.99-72.45,5.9,16.28-2.16,68.82-4.8,86.7Z"/>
          <path class="cls-12" d="m819.68,216.45c9.67,16.39,12.83,22.4,16.02,28.7,6.26,12.37,12.61,25.87,17.05,37,.08.2.16.4.24.6,3.38,8.53,6.01,24.82,15.17,30.32,3.14,1.89,7.04,2.5,12.01,1.1h0c.25-.07.5-.15.76-.23,12.32-3.9,16.49-15.58,15.96-30.46-1.32-37.56-45.75-135.37-63.71-145.85,0,0-28.72,38.08-28.45,53.15.13,7.42,14.95,25.66,14.95,25.66Z"/>
          <path class="cls-12" d="m750.83,432.58c11.98,4.16,32.07.47,45.12-.71,6.56-.59,12.5-2.53,19.26-2.28,5.82.21,15.77,4.09,20.96,2.99.37-4.72-9.38-144.59-8.23-157.2,3.34-36.57,13.47-83.09,12.7-126.49-.08-4.32-6.84-12.22-11.21-13.5-6.52-1.9-15.12-3.51-23.42-4.78-10.88-1.67-21.25-2.77-25.81-3.22-1.55-.15-2.42-.23-2.42-.23.06.56-.03,2.61-.24,5.94-.92,14.69-4.21,54.23-8.2,100-7.27,83.44-16.84,187.58-18.5,199.47Z"/>
          <path class="cls-12" d="m718.47,434.89c-9.98,3.61-26.21-.82-36.8-2.5-5.33-.84-10.08-2.99-15.61-3.02-4.76-.02-13.07,3.39-17.26,2.11-.08-4.66,18.06-285.41,30.17-291.71,5-2.6,32.23-6.45,32.23-6.45-.07.55-.1,2.57-.09,5.86.04,14.49.83,53.53,1.88,98.72,1.91,82.39,4.7,185.23,5.49,197Z"/>
          <g>
            <path class="cls-69" d="m617.47,427.35c-3.15-.45-5.34-3.37-4.89-6.52l9.5-66.17c.45-3.15,3.37-5.34,6.52-4.89l97.36,13.97c3.15.45,5.34,3.37,4.89,6.52l-9.5,66.17c-.45,3.15-3.37,5.34-6.52,4.89l-97.36-13.98Z"/>
            <path class="cls-71" d="m618.16,422.58c-3.15-.45-5.34-3.37-4.89-6.52l9.5-66.17c.45-3.15,3.37-5.34,6.52-4.89l97.36,13.98c3.15.45,5.34,3.37,4.88,6.52l-9.5,66.17c-.45,3.15-3.37,5.34-6.52,4.89l-97.36-13.98Z"/>
            <g>
              <path class="cls-32" d="m714.32,363.77c-1.19-.17-2.02-1.28-1.85-2.47h0c.17-1.19,1.28-2.02,2.47-1.85h0c1.19.17,2.02,1.28,1.85,2.47h0c-.17,1.19-1.28,2.02-2.47,1.85h0Z"/>
              <path class="cls-32" d="m703.67,362.25c-1.19-.17-2.02-1.28-1.85-2.47h0c.17-1.19,1.28-2.02,2.47-1.85h0c1.19.17,2.02,1.28,1.85,2.47h0c-.17,1.19-1.28,2.02-2.47,1.85h0Z"/>
              <path class="cls-32" d="m693.02,360.72c-1.19-.17-2.02-1.28-1.85-2.47h0c.17-1.19,1.28-2.02,2.47-1.85h0c1.19.17,2.02,1.28,1.85,2.47h0c-.17,1.2-1.28,2.02-2.47,1.85h0Z"/>
              <path class="cls-32" d="m682.37,359.19c-1.19-.17-2.02-1.28-1.85-2.47h0c.17-1.19,1.28-2.02,2.47-1.85h0c1.19.17,2.02,1.28,1.85,2.47h0c-.17,1.19-1.28,2.02-2.47,1.85h0Z"/>
              <path class="cls-32" d="m671.72,357.66c-1.19-.17-2.02-1.28-1.85-2.47h0c.17-1.19,1.28-2.02,2.47-1.85h0c1.19.17,2.02,1.28,1.85,2.47h0c-.17,1.19-1.28,2.02-2.47,1.85h0Z"/>
              <path class="cls-32" d="m661.07,356.13c-1.19-.17-2.02-1.28-1.85-2.47h0c.17-1.19,1.28-2.02,2.47-1.85h0c1.19.17,2.02,1.28,1.85,2.47h0c-.17,1.19-1.28,2.02-2.47,1.85h0Z"/>
              <path class="cls-32" d="m650.43,354.6c-1.2-.17-2.02-1.28-1.85-2.47h0c.17-1.19,1.28-2.02,2.47-1.85h0c1.19.17,2.02,1.28,1.85,2.47h0c-.17,1.19-1.28,2.02-2.47,1.85h0Z"/>
              <path class="cls-32" d="m639.78,353.07c-1.19-.17-2.02-1.28-1.85-2.47h0c.17-1.19,1.28-2.02,2.47-1.85h0c1.19.17,2.02,1.28,1.85,2.47h0c-.17,1.2-1.28,2.02-2.47,1.85h0Z"/>
            </g>
            <g>
              <path class="cls-6" d="m714.61,361.71c-.73-.11-1.24-.79-1.14-1.52l1.2-8.37c.11-.73.79-1.24,1.52-1.14h0c.74.11,1.25.79,1.14,1.52l-1.2,8.37c-.11.74-.79,1.25-1.52,1.14h0Z"/>
              <path class="cls-6" d="m703.96,360.18c-.74-.1-1.25-.79-1.14-1.52l1.2-8.37c.11-.73.79-1.25,1.52-1.14h0c.73.11,1.25.79,1.14,1.52l-1.2,8.37c-.11.73-.79,1.25-1.52,1.14h0Z"/>
              <path class="cls-6" d="m693.32,358.65c-.73-.11-1.24-.79-1.14-1.52l1.2-8.37c.11-.74.79-1.24,1.52-1.14h0c.73.11,1.24.79,1.14,1.52l-1.2,8.37c-.11.74-.79,1.25-1.52,1.14h0Z"/>
              <path class="cls-6" d="m682.67,357.12c-.73-.11-1.25-.79-1.14-1.52l1.2-8.37c.11-.74.79-1.25,1.52-1.14h0c.74.11,1.25.79,1.14,1.52l-1.2,8.37c-.11.74-.79,1.25-1.52,1.14h0Z"/>
              <path class="cls-6" d="m672.02,355.59c-.74-.11-1.25-.79-1.14-1.52l1.2-8.37c.11-.74.79-1.25,1.52-1.14h0c.74.11,1.25.79,1.14,1.52l-1.2,8.37c-.11.73-.79,1.25-1.52,1.14h0Z"/>
              <path class="cls-6" d="m661.37,354.06c-.73-.11-1.25-.79-1.14-1.52l1.2-8.37c.11-.74.79-1.25,1.52-1.14h0c.74.11,1.25.79,1.14,1.52l-1.2,8.37c-.11.74-.79,1.25-1.52,1.14h0Z"/>
              <path class="cls-6" d="m650.72,352.54c-.73-.11-1.25-.79-1.14-1.52l1.2-8.37c.11-.74.79-1.24,1.52-1.14h0c.73.11,1.25.79,1.14,1.52l-1.2,8.37c-.11.73-.79,1.25-1.52,1.14h0Z"/>
              <path class="cls-6" d="m640.08,351.01c-.74-.11-1.25-.79-1.14-1.52l1.2-8.37c.11-.73.79-1.24,1.52-1.14h0c.73.11,1.25.79,1.14,1.52l-1.2,8.37c-.11.73-.79,1.25-1.52,1.14h0Z"/>
            </g>
          </g>
          <path class="cls-48" d="m818.22,208.35l.21.6c-.12-.22-.19-.43-.21-.6Z"/>
          <g>
            <path class="cls-53" d="m699.3,24.61l13.85,7.86c-2.71,6.64-5.9,12.45-6.74,19.84-.8,7.03-1.1,14.15,0,21.01-3.07-4.66-5.7-9.81-7.49-15.77-2.55-8.5-3.35-24.74.37-32.94Z"/>
            <path class="cls-8" d="m773.33,70.94c-.1,2.15.82,7.61.71,10.51-.26,7.15-1.13,18.59-4.49,22.75-13.04,16.16-28.06,21.56-38.18,19.96-13.4-2.11-20.22-15.16-22.21-18.71-2.09-3.73-2.83-9.84-3.51-18.14-1.75-21.35-.1-54.47,1.18-64.31l9.03-4.67c8.25-2.52,13.9-4.17,22.57-3.27,13.43,1.39,30.47,4.5,34.12,19.66,1.83,7.59,1.17,28.44.79,36.23Z"/>
            <g>
              <path class="cls-8" d="m698.66,61.43c4.66.31,6.9,7.31,7.59,10.91l.36,14.67c-8.11,9.48-13.34-9.28-14.06-15.06-.51-4.09.42-10.9,6.12-10.52Z"/>
              <path class="cls-68" d="m702.47,71.58c-4.11,1.47-2.68,7.63.54,9.07.23-.21-4.39.48-5.33-2.78-.97-3.34-.13-6.35,2.06-8.73-1.06-1.98-3.79-3.34-4.65-.9,1.53-7.68,7.57-2.44,7.38,3.33Z"/>
            </g>
            <g>
              <path class="cls-68" d="m747.69,70.65c.57.35,1.26-1.83,1.82-1.56,4.16,2.01,7.94,1.88,10.66,1.28,2.67-.6,4.2.82,4.2.82-1.83-2.18-2.81-6.08-4.48-6.82-.98-.43-2.15-.64-3.79-.64-2.98,0-4.73.54-6.52,2.32-.58.58-1.28,3.76-1.9,4.61Z"/>
              <path class="cls-6" d="m747.69,70.65c.57.35,1.15.66,1.7.93,4.16,2.01,7.94,1.88,10.66,1.28,2.67-.6,4.32-1.67,4.32-1.67-1.83-2.18-2.92-3.59-4.6-4.33-.98-.43-2.15-.64-3.78-.64-2.98,0-4.73.54-6.52,2.32-.58.57-1.16,1.27-1.78,2.12Z"/>
              <path class="cls-29" d="m749.33,70.35c0,.41.02.82.07,1.22,4.16,2.01,7.94,1.88,10.66,1.28.18-.79.27-1.63.27-2.5,0-1.26-.2-2.44-.55-3.5-.98-.43-2.15-.64-3.78-.64-2.98,0-4.73.54-6.52,2.32-.09.59-.14,1.2-.14,1.83Z"/>
              <path class="cls-6" d="m751.97,69.81c0,.76.31,1.38.7,1.38s.7-.62.7-1.38-.31-1.38-.7-1.38-.7.62-.7,1.38Z"/>
            </g>
            <g>
              <g>
                <path class="cls-68" d="m707.95,71.17c.56.31,1.1-1.91,1.65-1.68,4.07,1.71,7.66,1.33,10.21.53,2.51-.78,4.04.52,4.04.52-1.86-2.05-3-5.87-4.63-6.49-.95-.36-2.08-.49-3.64-.38-2.84.21-4.47.87-6.07,2.77-.52.61-1.01,3.84-1.55,4.73Z"/>
                <path class="cls-6" d="m707.95,71.17c.56.31,1.13.58,1.67.81,4.07,1.71,7.66,1.33,10.21.53,2.51-.78,4.02-1.97,4.02-1.97-1.86-2.05-2.98-3.38-4.61-4-.95-.36-2.08-.49-3.64-.38-2.83.21-4.47.87-6.07,2.77-.52.61-1.03,1.35-1.58,2.24Z"/>
                <path class="cls-29" d="m709.5,70.76c.02.41.07.82.13,1.21,4.07,1.71,7.66,1.33,10.21.53.13-.8.17-1.64.12-2.51-.07-1.25-.32-2.42-.71-3.46-.95-.36-2.08-.49-3.64-.38-2.83.21-4.47.87-6.07,2.77-.06.59-.07,1.21-.04,1.84Z"/>
                <path class="cls-6" d="m712.07,69.88c.04.76.37,1.36.74,1.33.37-.03.63-.67.59-1.43-.04-.76-.37-1.36-.74-1.33-.37.03-.63.67-.59,1.43Z"/>
              </g>
              <path class="cls-29" d="m716.18,59.24c2.44.48,5.14.58,7.67,1.17,3.41.79,1.35,5.11,1.35,5.11-.56.53-8-.24-10.15-.35-2.97-.15-7.77-1.89-10.43-.42,3.36-5.25,5.21-6.77,11.56-5.52Z"/>
            </g>
            <path class="cls-29" d="m754.89,58.62c-2.71.44-5.71.49-8.52,1.03-3.79.73-1.52,5.09-1.52,5.09.62.54,8.89-.09,11.27-.16,3.3-.1,8.63-1.75,11.58-.22-3.7-5.31-5.76-6.87-12.81-5.74Z"/>
            <path class="cls-68" d="m747.3,98.28s-.09.04-.25.11c-.16.08-.4.19-.69.34-.29.16-.66.32-1.07.51-.2.1-.41.2-.64.31-.23.1-.47.2-.73.31-.5.23-1.05.44-1.63.66-.29.12-.59.22-.9.32-.31.1-.61.22-.94.32-.32.09-.65.19-.98.29-.16.05-.33.1-.5.13-.17.04-.34.08-.51.12-.34.09-.68.17-1.03.23-.35.06-.69.14-1.04.19-.7.09-1.39.19-2.08.22-.69.07-1.37.03-2.03.05-.65-.06-1.3-.04-1.9-.15-.31-.04-.6-.07-.89-.11-.29-.06-.56-.11-.82-.16-.54-.08-1.02-.22-1.45-.33-.22-.05-.43-.1-.62-.15-.19-.06-.36-.12-.51-.17-.31-.11-.56-.17-.74-.23-.17-.05-.27-.08-.27-.08,0,0,.07.06.2.19.13.12.33.3.59.51.13.11.28.23.43.36.17.12.35.23.55.36.2.13.42.26.64.4.23.15.49.24.75.38.27.12.55.25.84.38.3.11.61.2.93.31.64.23,1.35.33,2.08.48.37.05.74.07,1.12.11.19.01.38.04.58.04.19,0,.39,0,.58,0,.19,0,.39,0,.59,0h.3s.29-.04.29-.04c.39-.04.78-.09,1.18-.13.77-.16,1.55-.28,2.29-.53.75-.2,1.45-.5,2.12-.78.33-.15.65-.32.97-.48.31-.16.62-.32.9-.5.28-.18.56-.35.82-.52.26-.17.5-.36.73-.54.23-.18.45-.35.65-.51.2-.18.38-.35.56-.51.35-.32.63-.61.84-.87.22-.25.38-.46.5-.59.11-.14.17-.22.17-.22Z"/>
            <path class="cls-68" d="m729.5,74.64c-.7,6.06-1.08,12.66,1.47,15.95,4.22.13,9.11-.06,9.11-.06-3.59,2.67-11,4.82-13.77,1.08.06.01,1.07-12.23,3.19-16.97Z"/>
            <g>
              <path class="cls-6" d="m739.49,74.64c0-5.54,6.34-10.04,14.12-10.04s14.13,4.51,14.13,10.04-6.34,10.04-14.13,10.04-14.12-4.51-14.12-10.04Zm1.77,0c0,4.51,5.54,8.17,12.35,8.17s12.35-3.67,12.35-8.17-5.54-8.17-12.35-8.17-12.35,3.67-12.35,8.17Z"/>
              <path class="cls-6" d="m701.43,74.39c0-5.54,6.18-10.04,13.77-10.04s13.77,4.51,13.77,10.04-6.18,10.04-13.77,10.04-13.77-4.51-13.77-10.04Zm1.77,0c0,4.51,5.38,8.17,12,8.17s12-3.67,12-8.17-5.38-8.17-12-8.17-12,3.67-12,8.17Z"/>
              <path class="cls-6" d="m739.66,73.57l1.43-1.11c-1.33-1.91-3.23-3.09-5.49-3.4-2.83-.39-6.11.65-8.55,2.73l1.11,1.46c2.08-1.76,4.84-2.66,7.21-2.33,1.79.25,3.24,1.14,4.29,2.65Z"/>
            </g>
            <g>
              <path class="cls-29" d="m705.17,35.09c10.11,6.74,43.42,7.51,50.15,4.49,10.85-4.87,17.78,5.73,18.34,11.6.41,4.3-4.28,31.95,3.37,28.82,0,0,13.85-24.7,14.6-49.41.2-6.56-3.45-12.03-9.25-16.45-14.31-10.89-41.68-15.37-56.62-13.87-9.88.99-24.82,5.81-30.03,16.01-.02.04-.04.08-.05.12-3.05,6.25,4.9,15.62,9.5,18.68Z"/>
              <path class="cls-53" d="m705.17,35.09c10.11,6.74,43.42,7.51,50.15,4.49,10.85-4.87,17.78,5.73,18.34,11.6.41,4.3-4.28,31.95,3.37,28.82,0,0,13.85-24.7,14.6-49.41.2-6.56-3.45-12.03-9.25-16.45-.03.39-.07.77-.11,1.17-.75,7.06-5.32,13.38-12.41,14.97-2.26.51-3.42-.38-5.54-.7-2.82-.42-6.24.02-9.05.31-5.91.6-11.61,2.43-17.59,2.93-14.67,1.21-31.99-5.24-42-16.43-3.05,6.25,4.9,15.62,9.5,18.68Z"/>
            </g>
            <g>
              <path class="cls-8" d="m784.84,65.97c-5.7-.58-8.74,6.73-10.27,10.46l-4.22,15.43c8,11.76,17.9-7.35,19.88-13.4,1.4-4.28,1.56-11.78-5.39-12.48Z"/>
              <path class="cls-68" d="m778.29,76.12c4.69,2.38,1.79,8.71-2.38,9.63-.23-.27,5.22,1.37,6.98-1.93,1.81-3.39,1.36-6.78-.83-9.76,1.66-1.92,5.22-2.84,5.79-.05-.39-8.54-8.69-4.1-9.55,2.12Z"/>
            </g>
          </g>
          <path class="cls-34" d="m765.52,194.62v.72s.02.74.02.74c.01.5.02,1,.03,1.49.02,1,.04,2,.07,3,.05.98.09,1.97.14,2.95.05.98.09,1.97.15,2.96.07.99.15,1.98.22,2.97.6,7.86,1.66,15.81,3.18,23.64.02.07.03.14.04.21,1.55,7.9,3.57,15.7,5.97,23.21.3.94.6,1.87.91,2.81.3.93.64,1.85.96,2.77.33.92.65,1.84.97,2.75.34.91.69,1.81,1.03,2.71.34.9.68,1.8,1.03,2.68.36.89.72,1.77,1.08,2.65.18.44.36.88.54,1.31l.27.66.07.16.06.15.03.08.14.31c.18.42.36.83.55,1.25l.27.62.31.67c.82,1.81,1.63,3.49,2.49,5.15.42.83.85,1.66,1.29,2.47.22.41.43.81.65,1.22.22.4.45.8.67,1.19,1.78,3.18,3.64,6.2,5.54,9.07,3.8,5.74,7.74,10.88,11.59,15.41,1.92,2.26,3.83,4.38,5.67,6.36,1.86,1.96,3.65,3.79,5.37,5.46,3.45,3.35,6.6,6.11,9.24,8.32,2.64,2.2,4.79,3.85,6.26,4.96,1.49,1.09,2.28,1.68,2.28,1.68l14.3,10.84-8.91-18.12s-3.17-2.7-3.87-3.33c-1.06-.94-2.31-2.09-3.72-3.43-2.34-2.23-5.12-5.03-8.14-8.37-1.51-1.68-3.08-3.49-4.69-5.44-1.6-1.95-3.25-4.05-4.9-6.27-3.31-4.45-6.64-9.45-9.77-14.93-1.56-2.74-3.08-5.6-4.5-8.57-.18-.37-.36-.74-.53-1.12-.17-.37-.34-.75-.52-1.13-.35-.76-.68-1.52-1.01-2.29-.67-1.53-1.3-3.13-1.88-4.64l-.22-.57-.23-.64c-.16-.43-.31-.85-.46-1.28l-.12-.32-.02-.06v-.02h0s-.05-.16-.05-.16l-.21-.63c-.14-.42-.28-.83-.42-1.25-.28-.84-.57-1.68-.85-2.53-.27-.85-.53-1.7-.79-2.56-.27-.86-.53-1.71-.79-2.58-.24-.86-.49-1.74-.73-2.6-.24-.87-.5-1.74-.72-2.62-.22-.88-.45-1.76-.67-2.65-1.76-7.07-3.15-14.34-4.1-21.66-.94-7.31-1.44-14.67-1.52-21.91,0-.9-.02-1.8-.03-2.71,0-.9.02-1.8.03-2.7.02-.89.03-1.79.05-2.68.04-.87.08-1.74.11-2.6.02-.43.03-.86.05-1.29l.03-.64.02-.32.02-.35c.06-.92.12-1.84.18-2.76.03-.46.06-.92.09-1.37l.05-.69v-.08s0,.04,0,.04v-.15s.04-.31.04-.31c.07-.82.15-1.64.24-2.46.72-6.58,1.97-13.04,3.48-19.03,1.52-5.99,3.3-11.54,5.22-16.46,1.92-4.92,3.97-9.2,5.97-12.73,2.01-3.53,3.97-6.3,5.65-8.33.1-.12.19-.24.29-.35-10.88-1.67-21.25-2.77-25.81-3.22-.14.27-.28.55-.42.83-.77,1.56-1.52,3.19-2.25,4.88-1.5,3.48-2.93,7.26-4.23,11.27-1.93,5.97-3.61,12.47-4.94,19.42-1.32,6.95-2.32,14.32-2.72,22.16-.05.98-.09,1.97-.11,2.97l-.02.86v.69c0,.46,0,.91,0,1.37,0,.92,0,1.84,0,2.77Z"/>
          <g>
            <g>
              <path class="cls-8" d="m825.05,267.93c-3.84,1.07-40.56-25.75-44.63-26.19-2.41-.26-8.28-1.85-13.21-4.33-5.98-2.99-10.59-7.27-6.04-12.04-5.34-3.52-5.07-10.96.35-12.4-5.38-4.43-3.71-7.39,1.65-10.64-7.56-10.04,1.71-8.84,9.74-7.49,3.45.58,6.67,1.19,8.23.94,6.16-.96.81-3.63.99-10.99.11-4.75,2.01-8.42,6.95-7.06,2.41,4.93,3.14,12.08,10.37,21.32,3.58,4.58,11.53,31.69,11.53,31.69-5.64,2.87,20.13,35.5,14.06,37.18Z"/>
              <path class="cls-68" d="m767.2,237.41c-5.98-2.99-10.59-7.27-6.04-12.04-5.34-3.52-5.07-10.96.35-12.4-5.38-4.43-3.71-7.39,1.65-10.64-7.56-10.04,1.71-8.84,9.74-7.49,1.11,2.4-1.21,5.6-4.12,7.18,4.25,2.96,3.69,9.86-1.46,11.79,2.87,2.21,2.79,6.79-.69,8.4,4.44,3.88,3.84,11.11.56,15.21Z"/>
            </g>
            <path class="cls-12" d="m802.59,260.07c1.45,1.26,18.6,37.01,58.41,50.69,2.65.91,5,1.7,7.15,2.32,4.7,1.34,8.41,1.88,12.01,1.1h0c.25-.07.5-.15.76-.23,12.32-3.9,16.49-15.58,15.96-30.46-.91-1.04-1.94-2.16-3.12-3.35-14.81-15.02-75.54-40.39-82.75-52.08l-8.42,32Z"/>
          </g>
          <g>
            <path class="cls-8" d="m646.68,388.07l24.86,1.01c2.54,8.12,12.1,13.18,14.93,16.44,6.96,8,13.18,9.87,17.14,12.86.35,4.62-3.22,5.67-7.46,4.96-6.57-1.11-8.01-6.31-9.92-1.01-.48,1.34-.5,4.31-.58,7.47-.18,7.36-.71,15.79-8.31,7.36-3.8,4.2-6.72,5.17-9.73-.36-2.21,4.57-8.85,3.52-11.06-1.82-5.01,3.21-8.02-1.61-9.65-7.42-1.35-4.8-1.75-10.28-1.57-12.46.14-1.73,5.22-17.53,1.35-27.02Z"/>
            <path class="cls-68" d="m646.9,427.55c1.62,5.81,4.63,10.64,9.65,7.42,2.21,5.34,8.85,6.38,11.06,1.82,3,5.53,5.92,4.56,9.73.36,7.61,8.43,8.13,0,8.31-7.36-1.94-1.39-5.18.11-7.07,2.42-1.9-4.28-8.12-4.97-10.71-.73-1.46-2.92-5.55-3.64-7.57-.83-2.68-4.6-9.19-5.31-13.4-3.1Z"/>
          </g>
          <path class="cls-12" d="m646.82,394.67l21.18-2.87,6-.82c-2.17-7.2-.22-27.8,1.83-49.64,1.93-20.41,3.95-41.91,2.8-54.57-.16-1.84-.4-3.5-.71-4.93-.37-1.74-.76-3.29-1.15-4.69-.02,0-.03-.02-.05-.03-1.91-1.08-3.81-2.01-5.7-2.76-10.2-4.05-20.05-3.04-28.34,6.4-.2.23-.4.46-.59.69,0,0,0,0,0,0-2.57,3.42-4.09,7.53-5.46,13.01-.63,2.51-1.21,5.3-1.86,8.46-.85,4.17-2.43-2.57-2.84,1.49-4.21,42.18,14.63,88.38,14.89,90.25Z"/>
          <path class="cls-12" d="m655.01,178.07c3.37-10.28,4.42-17.27,9.73-26.2,5.45-9.16,8.72-9.69,18.27-13.62l1.12,126.31c.51,9.51-5.81,23.64-10.09,32.03-3.66,7.16-8.61,15.92-15.3,20.77-7.2,5.23-21.61,7.48-25.7-1.71-6.81-15.29,17.59-124.27,21.96-137.58Z"/>
          <path class="cls-16" d="m842.16,243.94c-5.98-10.11-15.02-33.21-16.47-43.42,10.18,24.72,20.09,38.59,23.95,51.65-16.47-6.74-28.33-8.5-36.68-24.7,10.82,5.07,20.21,13.47,29.19,16.47Z"/>
          <path class="cls-16" d="m666.99,377.93c0,3.28.67,9.05,1.01,13.86l6-.82c-2.17-7.2,2.72-156.02,7.62-184.57-12.39,28.55-14.64,131.27-14.64,146.83,0,8.23.02,16.47,0,24.7Z"/>
        </g>
        <g>
          <g>
            <g>
              <path class="cls-21" d="m277.47,810.8s.05.01.08.02c8.66,1.7,32.95,1.96,36.76-1.23-.13-3.64-1.36-5.83-2.06-7.79-.1-.29-.22-.57-.34-.84-1.19-2.59-3.27-4.26-5.81-6.68-3.92-3.72-8.93-9.2-13.45-22.56l-.35-.05-11.69-1.76s0,.02-.01.03c-.01.03-.02.07-.04.1-1.27,3.52-4.34,16.37-5.84,26.57-.95,6.44,1.34,13.89,2.75,14.17Z"/>
              <path class="cls-8" d="m305.92,702.33c-3.69,18.77-11.79,53.99-11.79,73.54,0,6.58-2.06,15.49-10.66,4.18-5.6-7.37-6.27-54.31-6.39-65.23l28.84-12.5Z"/>
            </g>
            <path class="cls-8" d="m280.56,769.83v.22c0,5.41.15,10.74,1.06,15.99.5,2.91,1.02,7.53,3.02,9.66,2.13,2.28,5.02-.61,7.26-1.73,2.63-1.32,5.68-1.85,8.67-1.63,2.04.15,3.78,1.05,5.53,1.94-3.92-3.72-8.93-9.2-13.45-22.56l-.35-.05c-1.74,1.31-4.27,1.85-6.05,1.98-3.06.22-4.64-.83-5.65-3.7-.01-.04-.02-.08-.04-.11Z"/>
          </g>
          <g>
            <g>
              <path class="cls-21" d="m354.17,809.95s.05.01.08.02c8.65,1.74,32.94,2.14,36.77-1.03-.12-3.64-1.33-5.84-2.02-7.8-.1-.29-.22-.57-.34-.84-1.18-2.6-3.25-4.28-5.78-6.71-3.9-3.74-8.89-9.25-13.36-22.63l-.35-.05-11.68-1.82s0,.02-.02.03c-.01.04-.02.07-.04.1-1.29,3.52-4.41,16.35-5.95,26.54-.97,6.43,1.28,13.9,2.69,14.19Z"/>
              <path class="cls-8" d="m381.71,702.89c-3.76,18.75-10.59,54.55-10.67,74.1-.03,6.58-2.2,13.6-10.75,2.25-5.57-7.4-6.05-54.34-6.12-65.26l27.55-11.09Z"/>
            </g>
            <path class="cls-8" d="m357.43,769v.22c-.03,5.41.11,10.74.99,15.99.49,2.91.99,7.53,2.98,9.68,2.12,2.29,5.02-.59,7.27-1.7,2.64-1.3,5.69-1.82,8.68-1.58,2.04.16,3.77,1.07,5.52,1.97-3.9-3.74-8.89-9.25-13.36-22.63l-.35-.05c-1.75,1.3-4.28,1.83-6.06,1.94-3.06.2-4.64-.85-5.64-3.73-.01-.04-.02-.08-.04-.11Z"/>
          </g>
          <g>
            <path class="cls-61" d="m287.61,230.7c-3.74-25.83,7.96-94.93,11.6-110.79,7.49-32.56,15.35-26.95,26.2-29.94l38.55,24.7c6.03,8.74,5.96,22.13,5.99,32.19.03,11.95,10.68,1.97,9.73,13.85-.79,9.92,2.16,74.28,6.36,76.35-4.51,3.14-95.97,10.66-98.44-6.36Z"/>
            <g>
              <path class="cls-8" d="m276.75,244.17c3.62-12.26.48-27.93,12.96-29.75,4.82-.7,13.51-2.1,20.44-4.49-.03-.1-.07-.2-.11-.3.26.04.51.06.75.07,1.64-.59,3.16-1.24,4.49-1.95,5.86-6.2,5.77-25.29,6.37-30.68.09-.8.18-1.66.27-2.57.65-7.08.96-17.14-2.15-22.45l34.72,16.56,4.23,2.01c-.19.49-.38.99-.55,1.52-1.68,5.04-2.48,11.67-2.26,17.22,0,.06,0,.11.01.17,0,.05,0,.09.01.15,0,.01,0,.02,0,.03.11,1.04.53,3.24,1.21,5.96.54,2.15,1.25,4.63,2.1,7.1h.15c4.38,8.32,16.82,9.93,26.46,15.5,4.56,2.63,1.8,17,2.42,22.9,2.25,21.71-96.94,16.97-111.54,2.99Z"/>
              <path class="cls-68" d="m355.96,189.72c.11,1.04.53,3.24,1.21,5.96-8.17,14.81-31.35,2.3-36.24-17.01-.46-1.8,1.78-2.4,1.01-4.17.65-7.08.96-17.14-2.15-22.45l34.72,16.56,3.68,3.53c-1.68,5.04-2.48,11.67-2.26,17.22,0,.06,0,.11.01.17,0,.05,0,.1.01.15,0,.01,0,.02,0,.03Z"/>
            </g>
            <g>
              <path class="cls-41" d="m224.52,284.65c2.95.18,5.31,10.48,4.49,21.9-3.47,48.29,10.52,99.07,28.7,100.08,12.55.69,24.11-2.82,36.19-3.99,4.84-.47,9.57-.59,14.27-.76,6.42-.23,12.75-.56,19.17-1.98.95-.21,2.42-.62,3.37-.88l-17.97-180.79c-7.77-5.68-8.09-8.59-18.61-8.8-8.83-.18-22.13,1.58-30.87,3.93-5.85,1.58-11.42,3.39-16.22,5.8-7.18,3.6-12.67,8.51-14.9,15.91-3.87,12.83-8.18,28.82-7.62,49.59Z"/>
              <path class="cls-35" d="m224.52,284.65c2.95.18,5.31,10.48,4.49,21.9-3.47,48.29,10.52,99.07,28.7,100.08,12.55.69,24.11-2.82,36.19-3.99,4.84-.47,9.57-.59,14.27-.76,2.39-5.28,2.9-10.5.21-14.93-2.81-4.62-10.09-7.24-14.24-10.47-4.85-3.76-9.24-8.22-13.61-12.52-18.96-18.66-19.5-46.5-19.5-72.05,0-18.17-.14-37.89-4.49-55.43-1.76-7.09-3.6-13.39-9.51-17.33-7.18,3.6-12.67,8.51-14.9,15.91-3.87,12.83-8.18,28.82-7.62,49.59Z"/>
            </g>
            <path class="cls-8" d="m386.37,469.14c.62-5.45-1.17-11.82-2.52-17.14-8.46,1.45-2.12-14.25-.38-17.47-.24-1.03-.62-.15-1.19-.55l9.54-3.93c3.41,6.95,7.67,16.53,8.3,24.14.42,5.05-3.77,21.59-7.18,24.76-3.08-1.26-8.05.7-10.83-1.01-1.96-1.2-4.27-7.03-4.8-9.04,2.94-1.18,6.17-.63,9.06.24Z"/>
            <path class="cls-8" d="m365.88,217.11c8.19-7.9,28.12-3.64,29.21,35.84.14,4.88-3.57,84.91-3.62,90.97-.26,30.54,2.65,86.76,3.71,97.37-5.59-.69-7.95.76-13.56.27-3.79-18.61-33.92-206.91-15.74-224.45Z"/>
            <g>
              <path class="cls-51" d="m271.51,253.9c.53,2.26,2.19,21.16,3.51,45.11,1.08,19.57,1.92,42.51,1.73,62.49-.11,11.4-.56,21.84-1.5,30.13l99.56-1.5c-3.43-4.56-4.14-14.41-3.5-31.78.25-6.71.69-14.53,1.26-23.61.98-15.66,3.93-25.72,7.27-34.16.63-1.6,1.28-3.14,1.93-4.65,2.89-6.73,5.84-12.85,7.9-20.75.64-2.46,1.2-5.09,1.64-7.97,2.97-19.31,3.72-47.01-2.27-50l-26.2-10.48c-.89,10.44-11.58,19.17-18.71,18.71-14.22-.92-20.96-10.48-28.82-17.71-1.98-1.82-21.29,1.24-43.67,11.68-2.5,1.17-7.6,7.52-.12,34.47Z"/>
              <g>
                <path class="cls-51" d="m368.39,301.95c4.01-.15,7.98-.46,11.45-1.36,5.33-1.38,9.51-4.15,10.98-9.82.69-2.67.78-5.99.1-10.11-.2-1.22-.65-3.12-1.24-5.47-2.5-9.88-7.6-27.8-8.13-37.14l-12.02,58.4-1.13,5.5Z"/>
                <path class="cls-51" d="m382.75,232.21l-1.2,5.84c-.17-3.05.14-5.2,1.2-5.84Z"/>
              </g>
              <path class="cls-24" d="m272.76,361.34c1.33.03,2.66.09,3.99.17,10.17.62,20.35,2.65,30.57,3.36,19.46,1.34,35.18.06,54.22-4.29,3.49-.8,6.82-1.37,9.77-2.21.25-6.71.69-14.53,1.26-23.61.98-15.66,3.93-25.72,7.27-34.16,5.33-1.38,9.51-4.15,10.98-9.82-1.52,1.49-3.13,3-4.62,3.66-1.44.64-2.92,1.13-4.43,1.51-3.93.97-81.08,15.82-103.82-12.21-1.17,5.06-2.14,10.15-2.92,15.29-3.08,20.18-3.34,40.97-2.26,62.32Z"/>
            </g>
            <path class="cls-35" d="m380.93,206.66c8.91,5.1,12.61,10.85,13.23,14.57,2.73,16.36,1.06,34.2-.71,49.64-1.72,14.97-5.18,29.91-9.74,42.06-2.32,6.17-6.57,13.12-10.64,18.07.26-8.16,1.34-14.3,1.5-22.46,4.58-12.13,7.71-28.95,8.84-38.83,1.69-14.72,6.24-32.48.78-46.67-4.86-12.62-21.36-13.43-23.46-17.74-.12-.24-1.22-3.19-1.27-3.46,8.63-2.04,15.5,1.39,21.46,4.81Z"/>
            <path class="cls-50" d="m231.25,715.81c50.9,11.98,130.09,15.68,186.51-.23,1.25-24.69-5.32-88.14-13.89-155.68-11.95-94.16-27.78-196.27-31.71-212.37,0,0-16.09,7.35-34.81,7.86-15.03.41-40.43-1.18-53.33-2.08-4.93-.34-8.02-.59-8.02-.59-37.43,95.82-45.85,309.68-44.75,363.09Z"/>
            <path class="cls-35" d="m270.91,356.28c6.89,0,13.13-2.22,18.63-6.65,8.28-6.67,14.48-18.15,18.45-34.12,3.05-12.28,4.66-27.12,4.54-41.78-.13-15.12-.65-32.55-5.36-48.02-1.07-3.52-4.58-12.14-14.05-16.01-8.48-3.47-18.83-1.92-30.76,4.58l4.84,8.87c9.01-4.91,16.65-6.33,22.09-4.1,5.61,2.29,7.7,7.92,8.21,9.59,4.31,14.19,4.8,30.75,4.92,45.17.2,24.04-4.71,56.26-19.22,67.94-5.1,4.11-11.01,5.33-18.08,3.72l-2.23,9.86c2.76.63,5.44.94,8.02.94Z"/>
            <path class="cls-37" d="m231.25,715.81c50.9,11.98,130.09,15.68,186.51-.23,1.25-24.69-5.32-88.14-13.89-155.68-2.59,2.37-5.28,4.63-8.26,6.19-9.2,4.82-20.87,8.52-31.29,8.96-30.29,1.27-50.51-29.16-59.12-54.65-12.81-37.91-18.22-77.86-21.69-117.54-1.27-14.5-1.44-29.7-.19-44.15.1-1.12.36-3.08.71-5.42-4.93-.34-8.02-.59-8.02-.59-37.43,95.82-45.85,309.68-44.75,363.09Z"/>
            <g>
              <g>
                <path class="cls-8" d="m387.42,157.5c.09-4.9-2.81-9.43-6.23-8.05-10.04,4.02-7.95,16.87-7.95,16.87.23,4.93,5.58,5.33,8,3.78,3.06-1.97,6.1-7.86,6.19-12.59Z"/>
                <path class="cls-68" d="m379.36,154.19c-1.18,2.15-3.34,7.03-3.34,7.03-.58,3.86,5.14,3.62,5.66-.98.23-2.06-1.24-3.99.63-5.21,1.29-.84,2.46.59,2.99,2.18.54-4.39-4.08-6.4-5.94-3.03Z"/>
              </g>
              <path class="cls-8" d="m365.47,102.27c-23.45-21.4-50.64-1.32-55.05,26.43,0,0-3.31,25.82,1.83,38.21,3.89,9.38,21.52,30.21,37.49,29.36,7.59-.4,22.04-16.36,25.88-27.22,6.47-18.29,8.47-49.77-10.16-66.77Z"/>
              <g>
                <path class="cls-61" d="m357.74,140.47c.4-2.38,4.88-3.2,8.72-3.09,3.61.1,6.06,1.96,6.59,3.99-1.76-1.66-5.05-1.88-7.28-1.5-2.31.39-8.47,2.51-8.02.6Z"/>
                <path class="cls-61" d="m338.54,142.1c.5-2.28-3.14-3.99-6.55-4.72-3.21-.68-6.02.51-7.21,2.27,2.14-1.16,5.11-.66,6.93.17,1.89.86,6.53,4.13,6.83,2.27Z"/>
                <g>
                  <path class="cls-28" d="m352.6,177.49c-2.75,1.29-5.98,1.32-8.87-.06-.85,2.39,2.07,4.29,5.24,4.18,3.98-.14,4.8-4.05,3.63-4.12Z"/>
                  <path class="cls-30" d="m351.44,176.82c-1.22-.14-1.33.85-2.68.88-1.5-.08-1.61-1.39-3.15-.64-1.71.77-3.7-.31-3.66-.33,3.07,3.34,9.22,4.31,13.15.06-1.92.87-2.91.06-3.67.03Z"/>
                </g>
                <path class="cls-68" d="m345.22,167.35s.16.02.42.08c.13.03.29.05.46.09.17.04.37.07.58.11.21.05.44.08.67.13.23.04.48.09.73.13.25.03.51.08.77.11.26.04.52.05.78.08.13.01.26,0,.38.02.13,0,.25,0,.38,0,.12,0,.25,0,.37-.01.12-.01.23-.03.35-.04.12,0,.22-.05.33-.06.11-.02.22-.04.31-.08.1-.03.2-.06.3-.09.1-.04.18-.09.27-.13.18-.07.33-.18.47-.27.07-.05.14-.09.2-.13.06-.05.11-.09.16-.14.19-.17.32-.27.32-.27,0,0-.01.15-.08.42-.02.07-.04.14-.06.23-.03.08-.07.16-.12.24-.05.09-.1.18-.15.28-.05.1-.14.18-.22.28-.08.09-.17.2-.27.29-.11.08-.22.17-.34.26-.12.09-.25.16-.39.22-.14.06-.28.14-.43.19-.3.09-.61.18-.93.21-.32.06-.64.03-.96.03-.32-.04-.63-.06-.93-.14-.3-.06-.59-.16-.86-.26-.27-.1-.52-.22-.76-.34-.23-.13-.45-.25-.63-.39-.19-.13-.36-.26-.5-.39-.14-.12-.26-.23-.35-.33-.18-.2-.27-.32-.27-.32Z"/>
                <g>
                  <path class="cls-68" d="m370.65,148.59c-1.22-.28-2.99-.57-5.68-.22-2.3.29-4.59,1.24-5.97,2.26-.49.36-.96.85-1.28,1.23-.56.66-.54,1.82-.56,1.98.86.05,1.56-.83,2.48-.83,1.77,0,3.81-.24,5.15-.57,1.69-.41,2.92-.85,4.29-1.43,1.09-.45,2.53-.1,4.45-.7-.24-.92-1.67-1.4-2.88-1.7Z"/>
                  <g>
                    <path class="cls-6" d="m373.54,150.29c-1.92.6-3.14,1.17-4.23,1.62-1.37.58-2.6,1.02-4.29,1.43-1.35.33-3.39.58-5.15.57-.91,0-1.83-.03-2.7-.08,0,0,.22-.4.78-1.06.32-.38.79-.87,1.28-1.23,1.38-1.02,3.67-1.97,5.97-2.26,2.69-.36,4.46-.06,5.68.22,1.21.3,1.95.6,2.66.79Z"/>
                    <path class="cls-14" d="m369.3,151.91c-1.37.58-2.6,1.02-4.29,1.43-1.35.33-3.39.58-5.15.57-.4-.21-1.13-2.02-.63-2.38,1.38-1.02,3.67-1.97,5.97-2.26,2.69-.36,4.46-.06,5.68.22.01.48-1.24,2.08-1.57,2.41Z"/>
                  </g>
                  <path class="cls-6" d="m367.86,151c0,.4-.31.79-.69.87-.38.07-.67-.19-.67-.6,0-.4.32-.79.69-.87.37-.07.67.19.67.6Z"/>
                </g>
                <g>
                  <path class="cls-68" d="m334.91,151.02c-1.01-.73-2.52-1.7-5.14-2.42-2.23-.64-4.71-.66-6.38-.26-.59.14-1.22.41-1.66.63-.78.39-1.21,1.46-1.29,1.6.77.39,1.76-.15,2.61.2,1.62.7,3.6,1.27,4.97,1.49,1.71.28,3.02.36,4.51.36,1.18.02,2.36.9,4.37,1.09.14-.93-.99-1.94-1.99-2.69Z"/>
                  <g>
                    <path class="cls-6" d="m336.89,153.71c-2.01-.2-3.35-.15-4.53-.17-1.49,0-2.8-.08-4.51-.36-1.37-.22-3.34-.79-4.97-1.49-.84-.35-1.68-.74-2.45-1.13.01,0,.36-.28,1.13-.67.45-.23,1.07-.49,1.66-.63,1.67-.4,4.15-.37,6.38.26,2.62.72,4.12,1.69,5.14,2.42,1,.75,1.56,1.32,2.14,1.76Z"/>
                    <path class="cls-14" d="m332.37,153.54c-1.49,0-2.8-.08-4.51-.36-1.37-.22-3.34-.79-4.97-1.49-.29-.35-.25-2.3.35-2.43,1.67-.4,4.15-.37,6.38.26,2.62.72,4.12,1.69,5.14,2.42-.18.44-1.96,1.43-2.39,1.6Z"/>
                  </g>
                  <path class="cls-6" d="m331.4,152.14c-.16.37-.6.6-.97.53-.37-.08-.54-.44-.38-.81.16-.37.6-.6.97-.53.37.08.54.44.38.81Z"/>
                </g>
              </g>
              <g>
                <path class="cls-8" d="m300.28,158.15c-.38-4.88,2.52-9.62,6.33-8.51,11.16,3.27,9.63,16.25,9.63,16.25.03,4.94-5.77,5.73-8.49,4.37-3.44-1.74-7.09-7.4-7.46-12.11Z"/>
                <path class="cls-68" d="m308.87,154.25c1.41,2.06,4.04,6.78,4.04,6.78.85,3.81-5.39,4-6.22-.56-.37-2.04,1.12-4.08-.98-5.15-1.45-.74-2.64.77-3.13,2.4-.84-4.35,4.08-6.7,6.29-3.47Z"/>
              </g>
              <path class="cls-5" d="m340.73,103.88l7.86-13.47c15.92-3.93,29.72,3.39,36.71,17.9,6.55,13.6-1,38.05-7.49,51.28,1.19-9.74,1.55-35.63-6.35-42.65-10.12-9-30.33,14.58-30.74-13.05Z"/>
              <g>
                <path class="cls-61" d="m311.94,162.58c2.58-7.86,1.19-13.82,3.66-22.2,2.12-7.18,7.07-14.48,21.04-14.73,7.32-.13,18.44-.07,24.51-14.99.06-.16.13-.32.19-.48,3.63-9.3,2.51-20.89-9.73-23.95-6.74-1.68-22.46,0-22.46,0-10.91.95-17.76,5.47-22.08,11.73-2.49,3.61-4.14,7.81-5.25,12.22-3.85,15.4,7.3,37.12,10.11,52.4Z"/>
                <path class="cls-5" d="m311.94,162.58c2.58-7.86,1.19-13.82,3.66-22.2,2.12-7.18,7.07-14.48,21.04-14.73,7.32-.13,18.44-.07,24.51-14.99l-1.68-5.34c-1.82,3.76-2.35,6.7-6.74,8.22-4.12,1.43-9.25.82-13.55.39-4.94-.5-9.56-.48-14.13,1.5-3.84,1.67-5.08,4.7-8.18,7.07-1.36-3.82.85-7.63,1.73-11.14-4.62,2.39-6.54,7.96-7.49,12.65-3.95-4.23-4.52-12.61-4.79-18.22-.14-2.83.2-5.37.76-7.83-2.49,3.61-4.14,7.81-5.25,12.22-3.85,15.4,7.3,37.12,10.11,52.4Z"/>
              </g>
            </g>
            <g>
              <path class="cls-6" d="m354.88,153.24c0-6.58,5.35-11.93,11.93-11.93s11.93,5.35,11.93,11.93-5.35,11.93-11.93,11.93-11.93-5.35-11.93-11.93Zm1.81,0c0,5.58,4.54,10.12,10.12,10.12s10.12-4.54,10.12-10.12-4.54-10.12-10.12-10.12-10.12,4.54-10.12,10.12Z"/>
              <path class="cls-6" d="m321.07,153.06c0-6.58,5.35-11.93,11.93-11.93s11.93,5.35,11.93,11.93-5.35,11.93-11.93,11.93-11.93-5.35-11.93-11.93Zm1.81,0c0,5.58,4.54,10.12,10.12,10.12s10.12-4.54,10.12-10.12-4.54-10.12-10.12-10.12-10.12,4.54-10.12,10.12Z"/>
              <path class="cls-6" d="m344.61,153.37c1.22-1.9,2.72-2.95,4.45-3.13,1.96-.2,4.18.8,6.07,2.73l1.29-1.26c-2.32-2.37-5-3.53-7.55-3.27-2.28.23-4.28,1.6-5.79,3.95l1.52.98Z"/>
            </g>
            <g>
              <g>
                <path class="cls-8" d="m274.49,488.65c1.76,1.53,5.2,2.16,7.42,2.94,2.19.77,4.48,1.85,6.66,2.43-1.15,2.82-4.8,5.07-7.61,5.97-2,.63-7.08,3.04-8.17.77l1.7-12.1Z"/>
                <g>
                  <polygon class="cls-66" points="324.27 419.23 236.34 402.5 236.08 439.89 321.44 431.22 324.27 419.23"/>
                  <polygon class="cls-4" points="238.49 404.36 322.77 419.34 323.44 420.06 318.09 429.15 237.95 410.55 238.49 404.36"/>
                  <polygon class="cls-20" points="311.6 419.23 230.18 404.56 230.04 487.59 317.34 506.78 311.6 419.23"/>
                  <path class="cls-46" d="m311.6,419.23c.19.18.39.36.62.52,1.27.91,3.1,1.48,5.13,1.48,1.92,0,3.65-.5,4.9-1.32.31-.2.58-.42.82-.65,0,0,.01-.01.02-.02h1.19v83.02c0,1.25-.78,2.39-2.03,3.2-1.26.82-2.99,1.32-4.9,1.32-3.83,0-6.94-2.02-6.94-4.53v-83.02h1.19Z"/>
                  <path class="cls-23" d="m312.21,419.75v80.64c0,2.53,2.43,4.58,5.43,4.58,1.5,0,2.85-.51,3.84-1.34.98-.83,1.59-1.98,1.59-3.24v-81.14c-.24.24-.52.45-.82.65-1.26.82-2.99,1.32-4.9,1.32-2.03,0-3.86-.57-5.13-1.48Z"/>
                  <polygon class="cls-42" points="261.95 419.83 261.95 483.84 246.26 480.18 246.23 479.02 246.23 416.81 261.95 419.83"/>
                </g>
                <path class="cls-8" d="m250.75,464.72c.77-2.94,1.4-6.3,1.8-9.27l14.49,5.49c2.05,6.88,11.13,12.57,11.85,20.84.45,5.11,2.93,10.05,1.03,10.78-5.02,1.93-4.98-8.74-6.78-10.45.31,2.87,2.62,18.3,1.83,19.04-1.64,1.53-4.76.94-6.23-.91-.88.77-2.26,1.23-3.5,1.17-1.11-.05-2.22-1.1-3.17-1.07-1.31.03-2.39,1.02-4.19.49-1.2-.35-2.15-1.27-3.2-1.88-3.69,1.66-3.61-3.3-4.43-5.72-.9-2.65-1.25-21.86.5-28.53Z"/>
                <path class="cls-8" d="m261.91,398.84c2.78.62,7.43,1.14,11.38.62-2.32,23.39-5.69,58.89-4.65,71.84-4.15.37-10.87-.19-17.33-.31,0-9.87.68-49.87,0-76.46,4.66,1.85,5.51,3.19,10.6,4.32Z"/>
              </g>
              <path class="cls-8" d="m269.84,222.14c9.28-6.58,28.35.6,23.52,39.81-.6,4.85-7.49,35.03-8.44,41.01-4.83,30.16-15.84,135.84-16.38,146.49-5.42-1.52-11.23-1.71-16.71-3.03-.96-18.97-2.6-209.66,18-224.28Z"/>
            </g>
          </g>
        </g>
        <g>
          <g>
            <path class="cls-39" d="m600.88,305.89c-16.25,5.56-34.49,5.51-49.19-2.87l23.68-117.47c37.41,19.31,18.47,86.67,25.5,120.34Z"/>
            <path class="cls-38" d="m422.17,458.46c-1.19-26.89,1.85-58.5,9.23-96.28,8.19-41.91,20.35-85.35,36.16-129.11l.33-.9c5.6-15.51,10.89-30.17,18.54-44.58,1.13-2.12,4.59-7.56,8.44-12.49,6.55-8.39,15.25-15.85,15.25-15.85-1.63-2.09-3.99-3.04-6.65-2.68-2.67.36-7.16,2.05-15.38,12.51-4.61,5.86-8.36,11.87-9.64,14.28-8,15.07-13.41,30.06-19.14,45.93l-.33.9c-15.99,44.26-28.29,88.22-36.58,130.64-7.39,37.83-10.51,69.73-9.47,97.07,3.08.15,6.17.31,9.24.55Z"/>
            <g>
              <g>
                <path class="cls-31" d="m612.65,809.56c-5,3.53-40.78,2.8-52.12.92-.03,0-.07-.01-.1-.02-1.85-.31-3.13-.66-3.66-1.05-.04-.03-.08-.06-.11-.09-1.5-1.47-1.08-7.44.16-14.58,1.99-11.47,6.1-25.97,7.72-29.64l15.77,2.01c9.77,24.43,36.66,26.72,32.33,42.45Z"/>
                <path class="cls-6" d="m556.66,809.32s.07.06.11.1c.52.38,1.81.74,3.65,1.05.04,0,.07.01.1.02,11.35,1.88,47.13,2.61,52.12-.92.71-2.56.58-4.77-.16-6.77-.05.27-.12.55-.2.83-4.99,3.53-40.77,2.8-52.12.92-.03,0-.06-.01-.1-.02-1.84-.31-3.13-.66-3.65-1.05-.01,0-.28-.08-.66-.17-.16,3.01.08,5.2.91,6.01Z"/>
                <path class="cls-55" d="m557.23,721.77l25.65-12.35c-.69,17.88.68,67.81-1.05,71.3,0,0-7.58,2.3-10.86.52-6.7-3.63-14.86-48.18-13.75-59.47Z"/>
                <path class="cls-31" d="m581.61,759.92c8.27.39,11.15,3.75,9.2,10.89-.91,3.32-4.03,17.07-1.12,18.01l-16.18.49c-2.96-8.4-8.75-30.19,8.1-29.39Z"/>
              </g>
              <g>
                <path class="cls-31" d="m430.42,809.56c5,3.53,40.78,2.8,52.13.92.03,0,.07-.01.1-.02,1.85-.31,3.13-.66,3.66-1.05.04-.03.08-.06.11-.09,1.5-1.47,1.08-7.44-.16-14.58-1.99-11.47-6.1-25.97-7.72-29.64l-15.77,2.01c-9.77,24.43-36.66,26.72-32.33,42.45Z"/>
                <path class="cls-6" d="m486.41,809.32s-.07.06-.11.1c-.52.38-1.81.74-3.65,1.05-.04,0-.07.01-.1.02-11.35,1.88-47.13,2.61-52.12-.92-.71-2.56-.58-4.77.16-6.77.05.27.12.55.2.83,4.99,3.53,40.77,2.8,52.12.92.03,0,.06-.01.1-.02,1.84-.31,3.13-.66,3.66-1.05.01,0,.28-.08.66-.17.16,3.01-.08,5.2-.91,6.01Z"/>
                <path class="cls-55" d="m485.84,721.77l-25.65-12.35c.69,17.88-.68,67.81,1.05,71.3,0,0,7.58,2.3,10.86.52,6.7-3.63,14.86-48.18,13.75-59.47Z"/>
                <path class="cls-31" d="m461.46,759.92c-8.27.39-11.15,3.75-9.2,10.89.91,3.32,4.03,17.07,1.12,18.01l16.18.49c2.96-8.4,8.75-30.19-8.1-29.39Z"/>
              </g>
              <path class="cls-73" d="m453.2,752.53l31.81-.64c1.05-27.19,3.14-59.79,5.99-98.06,3.66-49.34,10.7-133.37,22.74-184.25.65-2.74,1.31-5.37,1.98-7.91.28-1.04.56-2.06.84-3.07.05-.17.1-.33.14-.5.18-.61.35-1.21.52-1.81.11.47.22.94.33,1.42.08.32.15.65.23.98.15.66.31,1.33.47,2.02,8.58,36.8,25.05,110.23,22.89,187.12-.96,34.24,7.15,65.63,12.83,86.27,2.16,7.83,3.97,14.11,4.8,18.41l29.54-.64c-1.04-20.33-3.45-59.41-5.99-104.8-2.74-49.05-2.39-137.22-7.05-207.78-.09-1.29-.17-2.57-.26-3.85-1.27-18.29-2.89-35.3-5.01-50.02l-112.3-2.32c-1.45.64-1.45,20.29-1.63,51.21-.01,1.24-.02,2.5-.02,3.77-.32,51.61-1.31,132.07-9.98,208.25-5.44,47.84,6.98,89.29,7.12,106.18Z"/>
              <path class="cls-49" d="m528.05,453.06l-10.49,4.66c.08.32.15.65.23.98.15.66.31,1.33.47,2.02,8.58,36.8,25.05,110.23,22.89,187.12-.96,34.24,7.15,65.63,12.83,86.27.04.06.08.12.12.18-2.18-7.2-2.04-15.13-2.8-22.77-4.33-43.22-1.36-89.1-1.36-134.02,0-39.39-5.18-91.25-21.88-124.45Z"/>
              <g>
                <g>
                  <path class="cls-57" d="m514.86,458.33c.54.12,1.11.21,1.7.28.4.04.81.08,1.23.1.19.02.39.02.59.03,1.11.05,2.25.06,3.38.06,1.97.01,3.83.02,5.29.27l1.67.28.4-1.4c2.18-7.69,1.6-16.34,1.04-24.72-.08-1.25-.16-2.48-.24-3.69-.3-5.05-1.4-10.54-2.45-15.84-1.06-5.29-2.06-10.29-2.19-14.44l-3.54.08c.14,4.36,1.16,9.46,2.24,14.86,1.04,5.21,2.12,10.6,2.41,15.48.08,1.22.15,2.46.24,3.71.52,7.67,1.04,15.58-.6,22.53-1.36-.11-2.81-.12-4.24-.12-1.12,0-2.24,0-3.29-.06-1.36-.07-2.6-.21-3.51-.54-.02,1.04-.06,2.08-.11,3.12Z"/>
                  <path class="cls-57" d="m514.86,458.33c-.18,3.86-.54,7.63-1.12,11.25.91-3.86,1.85-7.53,2.82-10.97.4.04.81.08,1.23.1.15.66.31,1.33.47,2.02.04-.66.08-1.32.12-1.98.05-.99.09-1.99.11-2.99.39-14.91-1.67-30.78-3.84-44.29l-3.5.4c2.12,13.25,4.15,28.79,3.82,43.35-.02,1.04-.06,2.08-.11,3.12Z"/>
                </g>
                <path class="cls-57" d="m456.06,438.1c3.41.36,6.56.54,9.44.54,9.04,0,15.46-1.77,19.17-5.3,3.55-3.36,5.86-10.13,6.35-18.56.45-7.74-.74-15.01-3.11-18.99l-3.21,1.92c1.95,3.26,2.99,10.04,2.59,16.85-.43,7.38-2.37,13.38-5.19,16.06-4.02,3.82-13.12,5.08-26.01,3.7-.01,1.24-.02,2.5-.03,3.77Z"/>
                <path class="cls-57" d="m556.94,415.9c.49,8.43,2.8,15.19,6.35,18.56,2.64,2.51,6.64,4.13,11.98,4.85-.09-1.29-.17-2.57-.26-3.85-4.12-.64-7.22-1.89-9.15-3.72-2.82-2.68-4.76-8.68-5.19-16.06-.4-6.82.64-13.59,2.59-16.85l-3.21-1.92c-2.37,3.98-3.56,11.25-3.11,18.99Z"/>
              </g>
              <rect class="cls-57" x="553.12" y="742.16" width="38.93" height="17.97"/>
              <rect class="cls-57" x="449.82" y="741.42" width="38.93" height="17.97"/>
              <path class="cls-13" d="m515.71,461.67c.28-1.04.56-2.06.84-3.07.05-.17.1-.33.14-.5l-.96.42c0,1.05-.02,2.09-.02,3.14Z"/>
            </g>
            <g>
              <g>
                <path class="cls-39" d="m446.73,241.72c2.14,12,3.75,24.96,4.93,38.18.67,7.44,1.19,14.97,1.61,22.45.33,5.9.58,11.77.77,17.55.03.96.06,1.92.09,2.87.01.39.02.79.03,1.18.06,1.89.1,3.77.14,5.64.02.64.03,1.28.04,1.91.02,1.2.04,2.39.06,3.57.01.75.02,1.5.03,2.25.01.76.02,1.52.03,2.28.01.91.02,1.82.03,2.72,0,.66.01,1.31.01,1.96,0,.52,0,1.03,0,1.54.02,2.49.02,4.93,0,7.33,0,.87,0,1.73-.01,2.59,0,.12,0,.25,0,.37,0,.48,0,.95,0,1.42,0,.61-.01,1.23-.02,1.83-.03,2.9-.07,5.73-.12,8.46-.02.98-.04,1.95-.06,2.91,0,.18,0,.36-.01.53-.02,1.02-.05,2.02-.08,3.02-.03.94-.05,1.87-.08,2.78-.02.52-.03,1.03-.05,1.54-.15,4.63-.33,8.87-.53,12.65-.01.26-.03.52-.04.78-.11,2.07-.22,3.98-.34,5.74-.05.66-.09,1.29-.13,1.91-.08,1.03-.15,1.98-.23,2.88-.01.1-.02.21-.03.31-.01.1-.02.21-.03.31-.03.37-.07.73-.1,1.07-.02.27-.05.52-.08.77-.03.3-.06.6-.09.87-.06.56-.12,1.07-.18,1.53-.02.18-.04.36-.07.52,0,.06-.01.12-.03.18-.01.09-.03.18-.04.26-.03.2-.06.38-.09.55.16.07.32.13.47.19.12.05.24.09.36.14.28.11.55.21.83.3.12.04.25.08.37.12.1.04.2.07.3.09.13.04.26.08.39.11.18.05.36.1.53.14.18.05.36.09.53.13.15.03.29.07.44.1.23.04.46.09.7.13.13.02.26.05.39.06.05.01.1.02.15.03.14.02.28.04.42.06.59.08,1.18.14,1.77.18.2.01.4.03.6.04.35.02.7.03,1.04.04.13,0,.26,0,.38,0,8.41.11,16.65-2.53,23.22,1.23,52.4,29.94,75.86,13.11,88.33,5.99.02-.09.05-.19.07-.28.05-.2.09-.4.13-.62.31-1.52.58-3.52.8-5.88.02-.25.05-.5.07-.76.05-.59.1-1.2.15-1.83.02-.23.03-.46.05-.69.04-.67.09-1.36.13-2.07.02-.4.05-.8.07-1.21.03-.61.07-1.24.09-1.88.02-.34.03-.68.05-1.03.03-.83.07-1.69.1-2.56.02-.35.03-.7.04-1.05,0-.04,0-.07,0-.11.01-.42.03-.85.04-1.28.01-.47.03-.94.04-1.41,0-.24.01-.48.02-.71.01-.45.02-.89.03-1.34,0-.37.01-.74.02-1.12,0-.24.01-.49.02-.74,0-.38.01-.77.02-1.16v-.04c0-.29,0-.58.01-.86,0-.15,0-.29,0-.44.01-.82.02-1.64.03-2.47,0-.25,0-.51,0-.77,0-1.02.02-2.05.02-3.09,0-.26,0-.52,0-.78.02-6.66-.05-13.53-.17-20.01-.07-4.09-.18-8.02-.29-11.67-.15-4.64-.32-8.81-.5-12.19-.2-3.68-.35-7.19-.46-10.53-.18-5.47-.25-10.51-.23-15.16.04-9.1.45-16.72,1.08-23.26,2.88-29.98,10.55-37.14,10.55-59.64s2.9-37.36-19.46-51.65c-4.39-2.81-9.87-6.81-14.74-9.56-.57-.32-1.12-.63-1.67-.91l-40.55-14.6c.48,1.55-.68,3.19-2.92,4.87-9.44,7.05-37.93,14.64-43.06,17.71-7.44,4.46-12,8-15.26,16.34-1.03,2.63-2.01,5.48-2.74,8.99-1.68,8.17-1.96,19.95,1.82,41.13Z"/>
                <g>
                  <g>
                    <path class="cls-8" d="m574.84,114.9c.17-2.95,1-6.76,1-6.76,1.34-6.53,8.73-11.47,12.28-7.83,3.56,3.65,3.5,10.23,2.19,14.22-1.3,3.94-5.62,10.87-10.92,9.56-4.52-1.11-4.73-6.03-4.55-9.2Z"/>
                    <path class="cls-68" d="m578.18,108.8c.08-.72,1.68-3.08,2.07-3.7,2.99-4.75,8.05-3.13,8.3,2.14-1.81-4.61-5.03-1.05-6.98,1.38,1.66.03,2.38,3.27,2.02,4.54-.63,2.24-2.5,2.69-4.44,3l.02-.18c.34-1.67,2.33-3.8,1.04-5.97-.7-1.19-2.19.12-2.04-1.21Z"/>
                  </g>
                  <path class="cls-31" d="m580.34,53.65c6.29,4.63,8.99,13.04,8.65,20.91-.3,7.19-4.43,27.54-9.85,31.97-.41-5.95-1.04-25.53-3.83-30.96-1.87-3.64-5.43-8.79-8.91-11.1l13.94-10.82Z"/>
                  <g>
                    <path class="cls-8" d="m510.82,111c1.38,6.91,1.51,14.26,1.04,21.65-.61,9.75-2.62,17.6-5.9,24.88,2.71,5.39,7.42,12.38,17.51,19.42,5.83,4.07,14.14,7.43,21.32,6.44,8.47-1.17,9.91-7.96,6.35-15.15-1.93-3.89-2.05-3.8-1.86-8.18.02-.49.04-1,.07-1.54.19-4.03.51-9.25.65-11.85l-39.11-37.34-.56-.53c.18.73.34,1.46.48,2.2Z"/>
                    <path class="cls-68" d="m510.82,111c1.38,6.91,2.11,6.55,1.64,13.94,4.73,36.84,34.28,36.39,36.89,33.59.19-4.03.51-9.25.65-11.85l-39.11-37.34c-.03.55-.05,1.11-.08,1.67Z"/>
                  </g>
                  <path class="cls-8" d="m581.97,85.34c1.41-23.4-19.79-49.51-46.6-41.66-5.68,1.66-14.51,7.5-17.93,12.86,0,0-4.32,13.73-6.36,37.77-1.11,13.01-.17,15.32.87,31.54,1.25,19.46,30.95,33.08,43.42,30.44,12.98-2.74,19.21-18.99,22.59-26.49,4.75-10.55,3.34-33.16,4.02-44.45Z"/>
                  <g>
                    <path class="cls-68" d="m539.81,95.36c-1.01-1.87-2.52-3.3-4.31-3.08-2.19.28-4.52,1.78-6.02,3.32-.66.67-1.69,2.12-2.42,3.36-1.48,2.52-1,4.08-1,4.08.52.13.91-1.9,1.52-1.79,3.32.63,7.84.93,11.4.35.73-.12,1.42-.28,2.05-.48.28-1.56-.21-3.89-1.22-5.76Z"/>
                    <g>
                      <path class="cls-6" d="m541.2,103.44c-.63.16-1.32.29-2.05.38-3.56.47-8.08.23-11.4-.28-.61-.09-1.18-.19-1.7-.3,0,0,.51-.69,1.18-1.54.77-.98,1.76-2.15,2.42-2.69,1.5-1.23,3.83-2.43,6.02-2.66,1.78-.18,3.3.96,4.31,2.46,1.01,1.5,1.5,3.37,1.22,4.62Z"/>
                      <path class="cls-31" d="m540,99.5c0,1.58-.31,3.05-.85,4.33-3.56.47-8.08.23-11.4-.28-.22-.57-.4-1.19-.52-1.83.77-.98,1.76-2.15,2.42-2.69,1.5-1.23,3.83-2.43,6.02-2.66,1.78-.18,3.3.96,4.31,2.46.01.22.02.44.02.67Z"/>
                      <path class="cls-6" d="m532.31,101.32c0,.53-.38.96-.84.96s-.84-.43-.84-.96.38-.96.84-.96.84.43.84.96Z"/>
                    </g>
                  </g>
                  <g>
                    <path class="cls-68" d="m575.86,94.82c-.92-1.87-2.32-3.3-3.96-3.08-2.01.28-4.15,1.78-5.53,3.32-.61.67-1.55,2.12-2.22,3.36-1.36,2.52-.91,4.08-.91,4.08.47.13.83-1.9,1.4-1.79,3.05.63,7.21.93,10.47.35.67-.12,1.3-.28,1.88-.48.26-1.56-.2-3.89-1.12-5.76Z"/>
                    <g>
                      <path class="cls-6" d="m577.14,102.9c-.58.16-1.21.29-1.88.38-3.27.47-7.42.22-10.47-.28-.56-.09-1.09-.19-1.56-.3,0,0,.47-.69,1.08-1.54.71-.98,1.62-2.15,2.22-2.69,1.38-1.23,3.52-2.43,5.53-2.66,1.64-.18,3.03.96,3.96,2.46.92,1.5,1.38,3.37,1.12,4.62Z"/>
                      <path class="cls-31" d="m576.04,98.95c0,1.58-.28,3.05-.78,4.33-3.27.47-7.42.22-10.47-.28-.2-.57-.37-1.19-.48-1.83.71-.98,1.62-2.15,2.22-2.69,1.38-1.23,3.52-2.43,5.53-2.66,1.64-.18,3.03.96,3.96,2.46.01.22.02.44.02.67Z"/>
                      <path class="cls-6" d="m568.97,100.78c0,.53-.35.96-.77.96s-.77-.43-.77-.96.35-.96.77-.96.77.43.77.96Z"/>
                    </g>
                  </g>
                  <path class="cls-68" d="m557.29,108.11c-.66,1.26.14,11.34.78,13.28-1.56,1.2-5.39,1.09-7.03,2.23,2.79.24,5.89.53,9.67-1.09l-3.42-14.42Z"/>
                  <path class="cls-31" d="m521.92,93.42c4.83-1.53,10.4-.88,15.54-.28,2.2.26,5.91,1.68,6.52-1.03,2.77-12.37-25.76-7.48-22.06,1.3Z"/>
                  <path class="cls-31" d="m582.1,93.58c-4.22-1.45-9.08-.86-13.56-.32-1.92.23-5.15,1.54-5.69-.99-2.47-11.59,22.45-6.89,19.26,1.31Z"/>
                  <g>
                    <path class="cls-68" d="m537.08,125.99c5.53,8.17,12.02,11.05,15.62,11.05,2.24,0,4.22-.47,5.93-1.34,2.72-1.39,4.76-3.82,6.09-7.07,0,0-1.95.56-5.26.86-5.04.45-13.23.28-22.38-3.5Z"/>
                    <path class="cls-6" d="m537.08,125.99c5.53,8.17,12.02,11.05,15.62,11.05,2.24,0,4.22-.47,5.93-1.34.06-2.12.39-4.17.83-6.22-5.04.45-13.23.28-22.38-3.5Z"/>
                  </g>
                  <g>
                    <path class="cls-72" d="m503.09,61.41c-5.9,17.9,4.51,38.82,6.54,49.81,2.14-3.89,4.95-6.28,5.83-10.74,1.33-6.81-.09-13.78,4.81-16.52,6.94-3.87,5.43-4.68,7.93-11.87,1.05-3.02,7.03-8.04,9.61-6.74,5.36,2.71,11.9,4.33,18.22,5.29,12.37,1.87,23.84,1.19,23.84,1.19,3.45-1.05,21.15-6.19,20.76-29.59-3.32,5.07-7.73,7.12-13.65,6.69,2.4-5.21,6.49-15.95,3.99-21.28-1.67,13-20.73,7.82-28.41,6.75-42.92-5.96-50.95,7.61-53.3,13.58-.39.98-.62,1.76-.83,2.21-3.74-2.7-7.73-2.78-11.9-1.82,1.99,1.68,3.94,3.42,5.81,5.25-2.35.79-5.16.77-6.75,3.34,3.4-1.05,8.73.72,7.5,4.44Z"/>
                    <path class="cls-40" d="m503.09,61.41c-5.9,17.9,4.51,38.82,6.54,49.81,2.14-3.89,4.95-6.28,5.83-10.74,1.33-6.81-.09-13.78,4.81-16.52,6.94-3.87,5.43-4.68,7.93-11.87,1.05-3.02,7.03-8.04,9.61-6.74,5.36,2.71,11.9,4.33,18.22,5.29-4.44-3.25-9.35-8.61-12.68-9.95-6.99-2.81-13.06-2.27-19.79-.14.62-2.8,2.94-5.11,3.86-7.61-4.12.2-7.61,3.56-10.7,6.09-.17-2.7.03-5.28-.88-7.65-1.21.95-2.28,2.5-3.45,3.4-.69-2.76-1.77-4.95-3.13-6.78-.39.98-.62,1.76-.83,2.21-3.74-2.7-7.73-2.78-11.9-1.82,1.99,1.68,3.94,3.42,5.81,5.25-2.35.79-5.16.77-6.75,3.34,3.4-1.05,8.73.72,7.5,4.44Z"/>
                  </g>
                  <g>
                    <path class="cls-8" d="m514.14,112.36c-.18-3.15-1.07-7.21-1.07-7.21-1.43-6.97-9.32-12.25-13.11-8.36-3.81,3.9-3.74,10.92-2.34,15.19,1.38,4.21,6,11.61,11.66,10.22,4.83-1.19,5.05-6.45,4.86-9.82Z"/>
                    <path class="cls-68" d="m510.58,105.84c-.09-.76-1.8-3.29-2.21-3.95-3.19-5.07-8.59-3.34-8.86,2.29,1.94-4.93,5.37-1.12,7.45,1.48-1.77.03-2.54,3.49-2.15,4.85.68,2.4,2.67,2.87,4.74,3.2l-.02-.2c-.36-1.78-2.48-4.06-1.12-6.38.75-1.27,2.34.13,2.18-1.29Z"/>
                  </g>
                </g>
              </g>
              <path class="cls-44" d="m454.03,319.9c.03.96.06,1.92.09,2.87.01.39.02.79.03,1.18.06,1.89.1,3.77.14,5.64.02.64.03,1.28.04,1.91.02,1.2.04,2.39.06,3.57.01.75.02,1.5.03,2.25.01.76.02,1.52.03,2.28.01.91.02,1.82.03,2.72,5.59-.48,11.26-.46,17.22.7,14.26,2.77,28.45,6.96,42.48,9.9,20.8,4.35,41.65,4.2,60.67-2.73-.15-4.64-.32-8.81-.5-12.19-.2-3.68-.35-7.19-.46-10.53-19.21,7.19-38.66,7.4-59.72,2.99-14.03-2.93-28.23-7.13-42.48-9.9-6.12-1.19-11.94-1.17-17.68-.65Z"/>
              <path class="cls-44" d="m451.66,279.9c.67,7.44,1.19,14.97,1.61,22.45,3.71.03,7.49.31,11.38.99,15.92,2.77,31.77,6.96,47.44,9.9,21.01,3.93,42.06,4.18,61.61-.94.04-9.1.45-16.72,1.08-23.26-20.16,5.94-40.62,5.87-62.69,1.74-15.67-2.93-31.52-7.13-47.44-9.9-4.45-.77-8.75-1.04-12.98-.98Z"/>
              <g class="cls-3">
                <path class="cls-39" d="m446.73,241.72c2.14,12,3.75,24.96,4.93,38.18.67,7.44,1.19,14.97,1.61,22.45.33,5.9.58,11.77.77,17.55.03.96.06,1.92.09,2.87.01.39.02.79.03,1.18.06,1.89.1,3.77.14,5.64.02.64.03,1.28.04,1.91.02,1.2.04,2.39.06,3.57.01.75.02,1.5.03,2.25.01.76.02,1.52.03,2.28.01.91.02,1.82.03,2.72,0,.66.01,1.31.01,1.96,0,.52,0,1.03,0,1.54.02,2.49.02,4.93,0,7.33,0,.87,0,1.73-.01,2.59,0,.12,0,.25,0,.37,0,.48,0,.95,0,1.42,0,.61-.01,1.23-.02,1.83-.03,2.9-.07,5.73-.12,8.46-.02.98-.04,1.95-.06,2.91,0,.18,0,.36-.01.53-.02,1.02-.05,2.02-.08,3.02-.03.94-.05,1.87-.08,2.78-.02.52-.03,1.03-.05,1.54-.15,4.63-.33,8.87-.53,12.65-.01.26-.03.52-.04.78-.11,2.07-.22,3.98-.34,5.74-.05.66-.09,1.29-.13,1.91-.08,1.03-.15,1.98-.23,2.88-.01.1-.02.21-.03.31-.01.1-.02.21-.03.31-.03.37-.07.73-.1,1.07-.02.27-.05.52-.08.77-.03.3-.06.6-.09.87-.06.56-.12,1.07-.18,1.53-.02.18-.04.36-.07.52,0,.06-.01.12-.03.18-.01.09-.03.18-.04.26-.03.2-.06.38-.09.55.16.07.32.13.47.19.12.05.24.09.36.14.28.11.55.21.83.3.12.04.25.08.37.12.1.04.2.07.3.09.13.04.26.08.39.11.18.05.36.1.53.14.18.05.36.09.53.13.15.03.29.07.44.1.23.04.46.09.7.13.13.02.26.05.39.06.05.01.1.02.15.03.14.02.28.04.42.06.59.08,1.18.14,1.77.18.2.01.4.03.6.04.35.02.7.03,1.04.04.13,0,.26,0,.38,0,8.41.11,16.65-2.53,23.22,1.23,52.4,29.94,75.86,13.11,88.33,5.99.02-.09.05-.19.07-.28.05-.2.09-.4.13-.62.31-1.52.58-3.52.8-5.88.02-.25.05-.5.07-.76.05-.59.1-1.2.15-1.83.02-.23.03-.46.05-.69.04-.67.09-1.36.13-2.07.02-.4.05-.8.07-1.21.03-.61.07-1.24.09-1.88.02-.34.03-.68.05-1.03.03-.83.07-1.69.1-2.56.02-.35.03-.7.04-1.05,0-.04,0-.07,0-.11.01-.42.03-.85.04-1.28.01-.47.03-.94.04-1.41,0-.24.01-.48.02-.71.01-.45.02-.89.03-1.34,0-.37.01-.74.02-1.12,0-.24.01-.49.02-.74,0-.38.01-.77.02-1.16v-.04c0-.29,0-.58.01-.86,0-.15,0-.29,0-.44.01-.82.02-1.64.03-2.47,0-.25,0-.51,0-.77,0-1.02.02-2.05.02-3.09,0-.26,0-.52,0-.78.02-6.66-.05-13.53-.17-20.01-1.3,1.06-2.63,2.06-4.04,2.99-17.04,11.4-49.26,17.33-66.28,3.44-14.53-11.86-22.62-31.29-27.34-49.37-10.1-38.74,11.24-61.82-2.23-102.24-4.69-14.08-26.29.54-30.36-16.08-1.68,8.17-1.96,19.95,1.82,41.13Z"/>
              </g>
            </g>
            <g>
              <g>
                <g>
                  <path class="cls-8" d="m452.45,403.87l12.11-4.86c7.47,14.04,30.17,27.26,16.42,34.32-6.29,3.22-15.01,5.06-18.72,1.72-6.44-5.79-9.37-22.77-9.81-31.18Z"/>
                  <path class="cls-8" d="m410.7,309.49c9.25-1.63,23.74,8.02,27.57,15.2,13.07,24.51,15.52,57.58,30.47,80.74l-13.25,9.47c-19.95-22.84-41.9-51.26-51.21-80.14-2.54-7.87-4.84-23.28,6.42-25.27Z"/>
                </g>
                <path class="cls-8" d="m411.34,263.87c2.8-11.13,6.57-18.41,10.88-29.05,3.14-7.74,6.16-21.06,12.95-26.31l26.69,38.92c-4.77,5.39-28.21,81.01-35.07,86.1-7.65,5.67-16.17,11.25-21.2,4.14-10.07-14.24,1.83-58.21,5.75-73.8Z"/>
              </g>
              <path class="cls-8" d="m479.63,410.61c3.44,2.3,7.47,6.15,12.08,7.03,6.73,1.28,3.02,6.81-2.63,6.81-3.95,0-11.86-5.44-12.95-5.05l-11.2-13.32c3.66,1.58,11.06,2.1,14.71,4.54Z"/>
            </g>
            <g>
              <g>
                <path class="cls-38" d="m471.87,454.73c4-6.84,4.7-14.01,1.97-20.2-2.83-6.43-9.12-11.11-17.23-12.85-17.43-3.73-20.44,4.25-24.26,14.37-.75,1.99-1.53,4.05-2.48,6.25l5.49,2.39c1.01-2.33,1.85-4.56,2.59-6.52,3.65-9.67,5.02-13.28,17.4-10.63,6.22,1.33,10.96,4.76,13.01,9.41,1.93,4.38,1.34,9.63-1.66,14.76l5.17,3.02Z"/>
                <g>
                  <path class="cls-38" d="m379.63,535.23c25.94,16.46,57.69,29.5,88.14,27.51l24.7-110.04c-4.47-2.23-11.82-4.62-20.42-6.83-2.68-.69-5.48-1.36-8.34-2.01-9.77-2.2-20.36-4.09-29.82-5.29-3.19-.4-6.27-.45-9.09-.95-4.93-.88-11.67.62-14.66,3.62-14.33,20.1-32.83,76.22-30.51,93.99Z"/>
                  <path class="cls-47" d="m474.73,465.94c6.48-12.36,18.98-22.39,24.35-2.99,4.19,15.15-6.43,86.09-14.82,100.31,0,0-22.44,4.26-26.95-2.25-9.81-14.14,10.43-81.73,17.42-95.07Z"/>
                  <path class="cls-47" d="m439.17,505.23l7.82.78c1.38-13.84,4.15-24.34,9.56-36.21,4-8.78,8.71-14.99,14.17-22.17.44-.58.88-1.16,1.33-1.75-2.68-.69-5.48-1.36-8.34-2.01-5.22,6.89-10.14,13.54-14.31,22.67-5.72,12.55-8.78,24.12-10.23,38.69Z"/>
                  <path class="cls-47" d="m403.99,494l7.82.78c1.38-13.84,4.15-24.34,9.56-36.21,3.59-7.88,7.75-13.69,12.52-19.99-3.19-.4-6.24-.73-9.09-.95-3.83,5.26-7.42,10.76-10.59,17.68-5.72,12.55-8.78,24.12-10.23,38.69Z"/>
                </g>
              </g>
              <path class="cls-36" d="m478.99,476.27c-1.15,3.97,1.13,8.12,5.1,9.28l.72.21c3.97,1.15,8.12-1.13,9.28-5.1l2.93-10.06c1.15-3.97-1.13-8.12-5.1-9.28l-.72-.21c-3.97-1.15-8.12,1.13-9.28,5.1l-2.93,10.06Z"/>
              <path class="cls-38" d="m482.29,470.54c14.71-23.19,27.8-52.54,39.86-89.36,13.38-40.85,23.75-84.93,30.82-130.99l.15-.95c2.51-16.33,4.87-31.75,4.87-48.07,0-2.4-.55-8.83-1.72-14.99-2-10.48-6.51-21.15-6.51-21.15,2.6-1.08,5.33-.82,7.69.75,2.36,1.57,5.78,5.17,8.32,18.26,1.43,7.34,1.96,14.4,1.96,17.13,0,17.06-2.42,32.84-4.99,49.55l-.15.95c-7.15,46.59-17.64,91.18-31.19,132.54-12.08,36.88-25.23,66.51-40.03,90.18-3.01-1.32-6.03-2.62-9.08-3.85Z"/>
            </g>
            <path class="cls-39" d="m438.17,201.19c7.07-12.08,26.89-40.07,39.78-17.58,4.87,8.49,4.23,23.21,2.38,32.34-2.9,14.34-6.49,30.21-13.34,43.53l-11.53,29.51c-12.65-2.63-35.78-9.64-47.61-15.53,6.88-24.9,17.82-50.89,30.32-72.27Z"/>
          </g>
          <path class="cls-8" d="m629.73,339.62c-2.73,7.83-13.32,8.41-17.97,7.59-6.13-1.08-12.66-5.79-17.22-13.8l35.18,6.21Z"/>
          <g>
            <path class="cls-18" d="m485.39,336.44c0,2.66,2.16,4.81,4.82,4.81h185.72c2.66,0,4.81-2.16,4.81-4.81h0c0-2.66-2.16-4.82-4.81-4.82h-185.72c-2.66,0-4.82,2.16-4.82,4.82h0Z"/>
            <g>
              <g>
                <path class="cls-18" d="m573.55,245.23l-16.68,85.44c-.62,3.17,1.45,5.73,4.61,5.73h114.68c3.17,0,6.28-2.57,6.96-5.73l18.27-85.44c.68-3.17-1.38-5.73-4.59-5.73h-116.32c-3.21,0-6.32,2.57-6.94,5.73Z"/>
                <path class="cls-15" d="m579.37,245.23l-16.76,85.44c-.62,3.17,1.44,5.73,4.61,5.73h108.95c3.17,0,6.28-2.57,6.96-5.73l18.27-85.44c.68-3.17-1.38-5.73-4.59-5.73h-110.51c-3.21,0-6.32,2.57-6.94,5.73Z"/>
              </g>
              <path class="cls-18" d="m626.75,275.05c-.84,4.12,2.75,7.45,8.02,7.45s10.23-3.34,11.08-7.45c.85-4.12-2.74-7.45-8.02-7.45s-10.24,3.34-11.08,7.45Z"/>
            </g>
          </g>
          <g>
            <path class="cls-8" d="m620.52,334.66c-2.45-5.17-.09-15.38,7.27-7.14,6.92,7.75-2.09,16.58-4.6,18.13-3.84,2.38-16.66.52-2.67-11Z"/>
            <path class="cls-8" d="m629.62,333.44c-2.08-5.93-.09-17.63,6.15-8.17,5.87,8.89-1.76,19-3.88,20.78-3.25,2.72-14.12.58-2.27-12.61Z"/>
            <path class="cls-8" d="m636.68,333.96c-2.08-5.93-.09-17.63,6.15-8.17,5.87,8.89-1.76,19-3.88,20.78-3.25,2.72-14.12.58-2.27-12.61Z"/>
            <path class="cls-8" d="m643.74,333.94c-2.08-5.93-.09-17.63,6.15-8.17,5.87,8.89-1.76,19-3.88,20.78-3.25,2.72-14.12.58-2.27-12.61Z"/>
          </g>
        </g>
        <g>
          <g>
            <g>
              <path class="cls-27" d="m219.49,344.58c-4.28,10.63-5.16,24.83-5.2,36.56l16.34,5.07c0-12.53-3.38-44.52-11.14-41.63Z"/>
              <path class="cls-27" d="m236.75,399.2c-.93-3.49-2.7-8.87-3.3-12.43-.92-5.46-4.51-9.02-7.97-13.14l-6.01,15.78c-1.19,7.41,6.24,10.32,9.6,14.44,2.2,2.69,9.45,10.53,11.28,3.61.56-2.11-3.04-6.16-3.6-8.27Z"/>
            </g>
            <g>
              <g>
                <path class="cls-45" d="m171.45,804.91c-13.15,7.51-64.71,1.82-69.88-1.13-.26-.65-.38-1.6-.42-2.75-.05-1.16,0-2.5.07-3.91.29-5.32,1.06-11.48-.4-11.38l29.31-8.64c4.2,8.1,5.71-.89,11.27,6.01,4.67,5.81,13.53,8.64,22.17,9.77,4.28.56,7.14,2.17,8.73,4.07.66.79,1.1,1.63,1.34,2.46.63,2.19-.17,4.34-2.18,5.49Z"/>
                <path class="cls-6" d="m173.63,799.41c-.12,1.48-.94,2.8-2.37,3.61-13.15,7.51-64.71,1.82-69.88-1.13-.1-.25-.18-.54-.24-.87-.05-1.16,0-2.5.07-3.91,6.21,2.98,56.68,8.44,69.67,1.02.57-.32,1.04-.73,1.41-1.19.66.79,1.1,1.63,1.34,2.46Z"/>
                <path class="cls-33" d="m140.36,774.06c-1.79-4.3-3.75-5.78-9.61-5.3-4.69.38-8.59,5.56-7.9,10.03.58,3.77-.96,5.86.31,9.07l25.75.89c-4.51-5.26-6.8-10.47-8.55-14.69Z"/>
              </g>
              <path class="cls-11" d="m207.26,488.6c-7.67,28.59-54.28,218.47-65.79,274.53-.2,2.41-.4,4.82-.53,7.13-.3,5.45-2.91,6.82-8,7.87-5.57,1.15-11.18,2.44-16.41,5.07-.08.04-.16.08-.24.13-.6.31-1.29.71-2.01,1.13-3.84,2.24-9.07,5.36-12.13,2.62-2.83-2.52-1.5-16.23-1.32-19.87,2.74-53.94,20.56-115.31,21.52-120.06,13.1-64.31,14.54-152.01,13.05-211.01-.36-14.31-10.27-21.11-8.6-33.38,3.24-23.84,6.24-31.33,18.12-57.79l84.88,53.47c-3.3,31.63-14.28,59.36-22.54,90.17Z"/>
              <g>
                <path class="cls-33" d="m211.32,377.5c0,20.69-1.97,42.14-5.41,58.84l-.22,1.05-1.04.25c-1.31.32-3.88.65-6.57.87-1.14.09-2.3.17-3.39.2.05-1.14.09-2.27.13-3.4,1.06-.05,2.23-.11,3.39-.21,1.67-.13,3.32-.32,4.61-.54,3.26-16.33,5.12-37.04,5.12-57.07h3.38Z"/>
                <path class="cls-33" d="m193.74,479.58s.6-32.48.96-40.87c.05-1.14.09-2.27.13-3.4.57-17.62-.36-34.05-4.13-42.19l9.8-1.71c4.34,9.39-6.23,83.16-6.76,88.17Z"/>
              </g>
              <g>
                <path class="cls-33" d="m203.68,808.33c-15.07,7.51-74.17,1.82-80.09-1.13-.3-.65-.44-1.6-.49-2.75-.05-1.16,0-2.5.08-3.91.33-5.32,1.22-11.48-.46-11.38l33.59-8.64c4.81,8.1,6.55-.89,12.92,6.01,5.35,5.8,15.5,8.64,25.4,9.77,4.9.56,8.18,2.17,10.01,4.07.75.79,1.26,1.63,1.53,2.46.72,2.19-.19,4.34-2.5,5.49Z"/>
                <path class="cls-6" d="m206.17,802.84c-.14,1.48-1.08,2.8-2.71,3.61-15.07,7.51-74.16,1.82-80.09-1.13-.11-.25-.2-.54-.27-.87-.05-1.16,0-2.5.08-3.91,7.12,2.98,64.96,8.44,79.85,1.02.65-.32,1.19-.73,1.61-1.19.75.79,1.26,1.63,1.53,2.46Z"/>
                <g>
                  <path class="cls-64" d="m192.8,474.05c-2.73,29.47-29.34,236.35-34.97,293.31.05,2.42.11,4.83.21,7.14.27,5.46-2.19,7.08-7.13,8.66-5.42,1.72-10.86,3.59-15.79,6.75-.07.05-.15.1-.23.15-.57.38-1.21.84-1.89,1.34-3.59,2.63-8.46,6.27-11.8,3.87-3.07-2.22-3.39-15.98-3.37-19.63.02-7.5,1.43-21.94,1.88-27.05l.29.09c.59-29.81,5.43-69.6,5.9-74.43,6.35-65.32-.46-172.95-8.07-231.48-1.84-14.19-12.41-19.92-12.02-32.31.75-24.05,2.95-31.8,12.02-59.36l81.34,14.29c0,31.8-3.61,78.76-6.38,108.67Z"/>
                  <path class="cls-33" d="m140.76,566.97c-.45,12.95-.66,26.21-.86,39.04-.27,17.01-.54,34.59-1.39,51.71-.65,13.1-1.88,26.33-3.07,39.11-1.12,12.02-2.27,24.45-2.95,36.79-.9,16.41.73,40.06,2.63,56.3-.07,0-.15.06-.23.15-.57.38-1.21.84-1.89,1.34-.05-.21-.1-.45-.14-.74-1.89-16.32-3.53-40.68-2.63-57.17.68-12.38,1.83-24.83,2.95-36.88,1.19-12.76,2.42-25.95,3.06-39.01.84-17.08,1.12-34.65,1.39-51.63.2-12.84.41-26.12.86-39.09.66-18.81-.59-37.86-1.78-56.3-.97-14.84-1.97-30.2-1.97-45.33,0-9.54-.56-19.35-1.1-28.84-.99-17.53-2.02-35.66.36-53.18l2.23.3c-2.35,17.31-1.33,35.33-.34,52.75.54,9.52,1.1,19.36,1.1,28.96,0,15.06,1,30.37,1.97,45.18,1.21,18.49,2.45,37.6,1.79,56.52Z"/>
                </g>
                <path class="cls-33" d="m168.04,777.48c-2.05-4.31-4.29-5.78-11.01-5.3-5.37.38-9.84,5.56-9.05,10.03.67,3.77-1.1,5.86.35,9.07l29.51.9c-5.17-5.26-7.79-10.47-9.8-14.69Z"/>
              </g>
              <path class="cls-33" d="m139.91,429.63c-.83,0-1.63,0-2.41-.01-.72,0-1.43-.01-2.11-.01v-3.38c.69,0,1.4,0,2.13.01,8.75.06,19.64.15,25.07-7.85,4.77-7.03,4.57-18.65,4.42-27.99-.03-1.67-.05-3.24-.05-4.75h3.38c0,1.48.03,3.04.05,4.69.17,9.81.37,22.03-5,29.95-5.88,8.67-16.74,9.34-25.48,9.34Z"/>
            </g>
            <g>
              <path class="cls-22" d="m220.02,246.28c6.73-2.41,13.34-5.21,19.71-8.38-.07-18.51-7.36-39.53-13.76-56.71-2.63-7.06-6.85-15.72-12.27-20.97-4.59-4.44-31.23-11.17-31.23-11.17-12.88,4.75-17.28,18.84-18.24,25.1-1.41,9.24.36,20.46,2.47,29.6,3.94,17.05,10.16,34.2,17.1,50.2,12.22-.6,24.62-3.51,36.2-7.66Z"/>
              <path class="cls-10" d="m231.98,234.51c.07,9.93-2.86,9.45-4.51,19.3-.06.33-.11.65-.15.97-.02.15-.05.3-.06.45-3.29,23.36-.33,139.06-.46,141.69-1.09.32-2.14.63-3.17.93-18.11,4.16-34.7,5.26-55.3,3.08-25.39-2.69-45.64-10.68-66.17-23.03,21.07-39.77,7.86-101.27,1.96-143.92-2.82-20.4-10.16-54.81-3.01-74.81.16-.46.33-.91.5-1.36,6.57-17.19,18.23-25.67,39.29-25.33h.68l55.18,10.9c3.97,7.72,12.49,14.6,17.54,21.97,5.1,7.44,17.61,58.44,17.68,69.16Z"/>
              <path class="cls-22" d="m227.47,253.81c-.06.33-.11.65-.15.97-.02.15-.05.3-.06.45-3.29,23.36-.33,139.06-.46,141.69-1.09.32-2.14.63-3.17.93-21.9,6.27-30.48,5.71-55.3,3.08-25.39-2.69-45.64-10.68-66.17-23.03,21.07-39.77,7.86-101.27,1.96-143.92-2.82-20.4-10.16-54.81-3.01-74.81.16-.46.33-.91.5-1.36l18.09-8.4c-5.44,10.55,34.03,24.78,35.32,36.86,1.54,14.52,3.36,31.26,3.79,46.07.54,18.43,8.31,29.06,31.71,29.09,12.51.01,25.26-2.66,36.95-7.62Z"/>
            </g>
            <g>
              <path class="cls-63" d="m189.5,138.26l-25.36,24.23c5.47,11.28,32.55,20.71,42.83,12.96,12.98-9.79-9.66-31.18-17.47-37.19Z"/>
              <g>
                <g>
                  <path class="cls-60" d="m224.71,33.48c-2.6-2.65-6.62-1.38-9.48-2.99l-2.65,2.4c2.21,2.25,3.57,3.58,5.02,6.6,1.31,2.73,2.59,5.46,3.42,8.43,1.64,5.9.53,12.25,2.03,17.94,3.45-5.35,5.23-12,6.79-18.45,2.11-8.69-2.58-11.32-5.13-13.93Z"/>
                  <path class="cls-60" d="m163.09,95.83l-6.09-.76c.02,2.87-1.63.44-2.03,3.3-.37,2.69-.94,11.49.8,13.41,2.53,2.8,5.34,3.35,6.49-1.42,1.18-4.87.85-10.29.83-14.53Z"/>
                  <g>
                    <path class="cls-27" d="m209.45,102.09c-.29.24-.54.75-.77,1.45-1.28,3.97-1.68,14.16-2.62,17.5-1.2,4.3-2.3,8.84-3.51,13.25-.5,1.82-1.01,3.61-1.57,5.36-1.84,5.86-2.22,8.47.76,14.32,1.78,3.48,6.93,13.33,1.61,15.8-22.4,10.38-51.33-31.95-71.24-36.83,7.14-2.63,21-1.69,24.2-12.23,1.69-5.58,3.98-12.35,3.98-19.79,0-3.92-.45-6.63-1.27-9.98l38.67,8.97,11.76,2.19Z"/>
                    <path class="cls-52" d="m209.18,101.76c-1.28,3.97-1.68,14.16-2.61,17.5-1.2,4.3-2.3,8.84-3.51,13.25-29.99,3.67-45.05-39.99-44.29-46.08l39.43,11.68,10.98,3.64Z"/>
                  </g>
                  <path class="cls-27" d="m225.68,65.88c-1.52-5.59.42-12.37-.89-18.14-5.18-22.81-24.19-26.06-24.19-26.06-6.3-2-15.7-1.08-22.08.17-26.2,5.14-33.85,28.94-24.05,52.15,7.22,17.1,4.43,37.71,31.98,48.98,5.58,2.28,16.5,5.08,23.86,3.3,8.14-1.96,9.39-8.48,11.93-13.2,5.33-9.9,7.18-20.22,7.3-30.49.08-6.79-2.21-10.68-3.85-16.71Z"/>
                  <g>
                    <path class="cls-52" d="m193.46,81.05c-.44,0-1.9-.64-2.34-.64-4.58-.04-8.01-1.08-10.92-1.79-2.44-.59-4.16-.37-4.16-.37,1.33-.52,3.12-2.51,4.61-2.84,4.28-.96,8.89-.78,11.75,2.54.37.43.75,2.57,1.06,3.11Z"/>
                    <path class="cls-6" d="m193.08,80.91c-.44,0-.89.01-1.33,0-.93,0-1.84-.05-2.73-.11-3.52-.25-6.7-.86-9.03-1.43-.69-.17-1.32-.33-1.85-.48-1.32-.37-2.1-.64-2.1-.64.77-.3,1.59-.59,2.43-.84.6-.18,1.22-.34,1.84-.48,2.67-.6,5.47-.75,7.89.02,1.46.46,2.78,1.27,3.86,2.51.37.43.71.91,1.02,1.45Z"/>
                    <path class="cls-7" d="m189.08,80.51l-.07.3c-3.52-.25-6.7-.86-9.03-1.43-.69-.17-1.32-.33-1.85-.48.05-.27.1-.55.17-.83.05-.22.11-.44.16-.66.6-.18,1.22-.34,1.84-.48,2.67-.6,5.47-.75,7.89.02.44.57.99,3.08.88,3.56Z"/>
                    <path class="cls-6" d="m182.84,78.59c-.07.33-.43.53-.8.45-.37-.08-.6-.42-.53-.75.08-.33.43-.53.8-.45.37.08.6.42.53.75Z"/>
                  </g>
                  <g>
                    <path class="cls-52" d="m226.2,73.03c-.32.21-1.68.32-2,.52-3.34,2.08-6.32,2.76-8.77,3.49-2.05.61-3.19,1.6-3.19,1.6.72-1.07,1.07-3.63,1.99-4.61,2.65-2.82,6.07-4.8,9.72-3.22.47.2,1.77,1.89,2.25,2.22Z"/>
                    <path class="cls-6" d="m225.86,73.08c-.32.21-.64.42-.96.62-.68.42-1.36.81-2.03,1.17-2.67,1.41-5.27,2.35-7.23,2.93-.58.18-1.11.32-1.57.44-1.14.29-1.82.41-1.82.41.41-.62.87-1.24,1.36-1.85.35-.43.72-.87,1.11-1.27,1.66-1.76,3.61-3.19,5.73-3.63,1.28-.27,2.62-.18,3.99.41.47.2.95.46,1.43.79Z"/>
                    <path class="cls-7" d="m222.77,74.58l.09.29c-2.67,1.41-5.27,2.35-7.23,2.93-.58.18-1.11.32-1.57.44-.09-.26-.18-.53-.27-.8-.07-.22-.13-.43-.2-.65.35-.43.72-.87,1.11-1.27,1.66-1.76,3.61-3.19,5.73-3.63.59.29,2.18,2.23,2.33,2.7Z"/>
                    <path class="cls-6" d="m217.34,75.8c.1.32-.06.66-.37.76-.3.1-.64-.08-.74-.41-.1-.32.06-.66.37-.76.31-.1.64.09.74.41Z"/>
                  </g>
                  <path class="cls-52" d="m212.12,93.83c-4.18-4.52-3.78-8.16-5.38-13.49-.88,4.74.33,8.97,2.04,13.2-1.47,1.01-5.46,3.05-6.94,4.01,4.56.91,9.12-.3,10.28-3.72Z"/>
                  <path class="cls-60" d="m192.28,67.02s-5.37-1.41-13.94,0c-3.36.55-5.8,1.97-7.61,4.61,4.23-2.89,25.66,3.32,21.56-4.61Z"/>
                  <path class="cls-60" d="m209.33,65.25s6.39-2.44,12.13-2.15c3.01.15,5.39,1.05,7.43,3.36-4.18-2.19-21.73,7.23-19.55-1.21Z"/>
                  <path class="cls-52" d="m195.1,102.73s.09.03.26.1c.16.07.41.16.72.27.31.11.69.24,1.12.38.43.14.92.28,1.46.43.54.14,1.12.28,1.74.41.62.13,1.27.25,1.95.34.34.05.69.08,1.03.13.35.02.7.06,1.06.08.71.04,1.43.05,2.15,0,.72-.03,1.43-.11,2.11-.23.69-.11,1.35-.28,1.98-.48.63-.2,1.22-.43,1.77-.69.55-.25,1.05-.53,1.51-.8.44-.29.85-.55,1.2-.81.36-.25.64-.5.89-.69.47-.41.76-.65.76-.65,0,0-.04.08-.12.22-.08.14-.19.36-.35.62-.18.25-.37.58-.66.91-.14.17-.29.36-.46.54-.18.18-.36.37-.57.56-.21.18-.43.38-.67.57-.25.18-.5.38-.78.55-.56.36-1.19.7-1.89.98-.69.28-1.44.53-2.22.69-.78.17-1.59.27-2.4.32-.81.04-1.62.02-2.41-.06-.79-.07-1.55-.2-2.28-.36-.73-.16-1.41-.36-2.04-.58-.64-.21-1.21-.47-1.73-.71-1.04-.49-1.83-1.01-2.35-1.39-.27-.19-.46-.36-.58-.47-.13-.11-.2-.17-.2-.17Z"/>
                  <path class="cls-52" d="m205.22,112.58h.25c1.77.57,4.57.88,6.51.78-1.47-2.6-4.77-2.53-6.76-.78Z"/>
                  <path class="cls-60" d="m173.58,28.73l-12.03,4.37c-7,3.55-11.52,13.67-13.48,21.13-1.45,5.53-4.27,19.26-.97,26.62,4.43-1.45,8.29-4.47,10.53-.47,1.46,2.6,2.69,13.34,5.32,12.79,1.34-5.59,2.1-10.7,1.5-16.71-.56-5.67-2.67-11.61,1.2-16.69,1.66-2.17,3.25-2.81,3.9-5.54.65-2.75-.23-5.86-.37-8.74-.23-4.61-1.08-15.01,4.39-16.77Z"/>
                  <g>
                    <path class="cls-27" d="m157.25,79.58c-5.33-4.06-9.59-1.62-10.89,2.45-1.25,3.92-.62,7.85,1.06,11.25,3.33,6.78,13.54,12.48,17.7,7.1-1.16-9.29-3.55-17.26-7.87-20.81Z"/>
                    <path class="cls-52" d="m160.34,92.12c-1.88,2.03-4.66-.44-4.97-2.66-.41-2.99,1.48-2.69-.28-5.81-3-5.32-8.26-1.85-6.19,3.02.16-2.82,2.78-2.95,4.41-1.03-7.73,7.08,7.28,15.65,8.16,6.1l-1.14.38Z"/>
                  </g>
                  <g>
                    <path class="cls-70" d="m219.93,34.29l-.36.69c-.14-.03-.28-.06-.42-.09-.84,3.3-3.08,6.08-5.85,8.2-4.03,3.07-8.26,5.08-12.36,7.96-3.2,2.24-5.87,4.52-8.38,7.19-1.12-3.59.67-7.94,3.36-10.39-8.62.65-17.24,9.22-19.75,17.26-3.23-4.63-.82-12.26,1.27-16.91-5.2,1.09-9.46,9.11-11.42,13.43-2.62,5.78-1.19,14.49-1.73,20.61-2.13-2.3-5.43-8.48-6.92-11.31-1.06-2.02-1.81-4.05-2.42-6.14-1.24,2.17-2.97,4.56-5.44,7.23-.1-.88-.55-1.63-.64-2.54-1.88,1.96-5.63,9.13-5.69,9.13-.19.23-1.19-7.4-1.35-9.98-1.1.96-2.08,2.53-2.68,3.74-.2-3.15-.17-6.67.31-9.68-1.2.29-2.7,1.1-3.73,1.61.65-2.91,4.07-6.81,5.7-9.54-2.25,1.72-4.71,3.06-7.3,4.03,2.08-11.15,4.56-17.48,10.95-26.03.29-.38.59-.77.9-1.14,4.76-5.86,11.81-11,18.43-14.65,7.48-4.13,21.41-7.65,30.02-6.65,9.79,1.14,22.35,7.4,25.08,17.75.52,1.93.68,4.01.42,6.23Z"/>
                    <g>
                      <path class="cls-1" d="m153.29,35.28s-.01.02-.02.03c.01,0,.02,0,.03-.01.09-.09.09-.1-.01-.01Z"/>
                      <path class="cls-60" d="m219.93,34.29l-.36.69c-.14-.03-.28-.06-.42-.09-.84,3.3-3.08,6.08-5.85,8.2-4.03,3.07-8.26,5.08-12.36,7.96-3.2,2.24-5.87,4.52-8.38,7.19-1.12-3.59.67-7.94,3.36-10.39-8.62.65-17.24,9.22-19.75,17.26-3.23-4.63-.82-12.26,1.27-16.91-5.2,1.09-9.46,9.11-11.42,13.43-2.62,5.78-1.19,14.49-1.73,20.61-2.13-2.3-5.43-8.48-6.92-11.31-1.06-2.02-1.81-4.05-2.42-6.14-1.24,2.17-2.97,4.56-5.44,7.23-.1-.88-.55-1.63-.64-2.54-1.88,1.96-5.63,9.13-5.69,9.13-.19.23-1.19-7.4-1.35-9.98-1.1.96-2.08,2.53-2.68,3.74-.2-3.15-.17-6.67.31-9.68-1.2.29-2.7,1.1-3.73,1.61.65-2.91,4.07-6.81,5.7-9.54-2.25,1.72-4.71,3.06-7.3,4.03,2.08-11.15,4.56-17.48,10.95-26.03.29-.38.59-.77.9-1.14-.5,3.04-.74,6-.82,8.55,1.37-2.75,5.41-3.86,8.09-4.85-3,3.47-3.4,10.5-2.39,14.64,1.2-1.62,3.22-3.6,4.91-4.86.24,3.98.6,10,3.77,12.79-.12-13.67,14.23-22.18,24.17-28.6-2.04,2.59-4.09,8.07-3.76,11.33,1.01-.62,1.97-1.42,3.01-2.06-.8,2.18.6,5.46,1.9,7.32,5.2-2.63,8.73-6.98,12.1-11.48-.36,2.89,1.12,6.21,3.3,8.06,1.73-1.49,3.19-3.89,4.24-5.88.46.86,1,1.7,1.8,2.29,4.77-2.7,10.14-6.05,13.21-10.8.52,1.93.68,4.01.42,6.23Z"/>
                    </g>
                  </g>
                </g>
                <g>
                  <path class="cls-33" d="m180.41,91.44c-4.66.38-8.73-2.6-11.47-8.4-.9-1.9-1.41-3.61-1.64-4.47-.65-2.41-.39-2.68-.1-2.98,2.99-3.08,10.31-4.69,16.17-5.17,7.27-.59,13.28.29,16.09,2.36.32.24.64.48.46,3.13-.08,1.19-.3,3.03-.89,5.06-1.19,4.18-3.93,9.27-10.17,9.78h-.19s-8.26.69-8.26.69Zm-11.45-14.72c.24,1.56,1.87,7.33,5.38,10.54,1.76,1.61,3.74,2.33,5.91,2.15h.14s8.31-.69,8.31-.69c2.47-.2,4.5-1.34,6.05-3.38,2.87-3.8,3.28-9.61,3.19-11.14-2.52-1.58-8.08-2.27-14.39-1.75-6.5.53-12.25,2.23-14.58,4.27Z"/>
                  <path class="cls-33" d="m217.24,87.67c-3.95.32-7.44-2.71-9.83-8.54-.78-1.91-1.25-3.63-1.45-4.48-.58-2.42-.36-2.68-.12-2.98,2.5-3.04,8.69-4.56,13.65-4.96,6.16-.5,11.27.45,13.67,2.56.27.24.55.49.43,3.13-.06,1.18-.22,3.02-.69,5.05-.96,4.16-3.22,9.21-8.51,9.65,0,0,0,0,0,0h-.16s-7,.59-7,.59Zm-9.89-14.85c.22,1.56,1.68,7.35,4.69,10.6,1.51,1.63,3.21,2.37,5.04,2.22h.12s7.04-.59,7.04-.59c2.09-.17,3.8-1.28,5.09-3.3,2.39-3.76,2.66-9.56,2.57-11.09-2.16-1.61-6.88-2.36-12.23-1.93-5.5.45-10.36,2.08-12.31,4.09Z"/>
                  <path class="cls-33" d="m198.45,74.22l-1.17-1.93c3.41-2.06,7.1-2.49,10.39-1.21l-.82,2.1c-2.62-1.02-5.6-.65-8.4,1.04Z"/>
                </g>
              </g>
            </g>
          </g>
          <g>
            <g>
              <path class="cls-2" d="m88.05,214.14c5.6-4.76,13.69-2.79,20.3-3.18l1.69-68.75c-23.65,18.55-27.75,43.23-21.99,71.93Z"/>
              <g>
                <path class="cls-2" d="m81.61,182.77c-4.63-7.36-10.31-1.94-16.37,1.67-9.12,5.42-11.03,7.31-11.44,17.12-.22,5.4-.74,19.47-5.84,21.79l6.01-.75c3.27-7.17,3.06-15.92,6.01-22.54,2.44-5.48,10.06-8.66,15.77-11.35,4.94,3.24,6.7,10.26,6.93,15.79,1.49-4.58,1.85-17.07-1.09-21.73Z"/>
                <g>
                  <path class="cls-2" d="m144.5,336.65c-1.34,9.84-9.01,18.87-15.1,27-11.37,15.17-23.52,45.32-43.86,48.39-58.04,8.75-52.75-76.37-58.36-113.21-1.79-11.73-4.06-23.32,2.72-33.99,6.25-9.83,9.05-18.42,12.42-29.09,3.75-11.87,9.24-19.7,19.01-27.78.31-.26.61-.51.92-.77,4.59-3.82,9.13-7.76,13.84-11.28,4.85-3.62,11.34-5.9,15.8-9.24l7.82-10.66c1.1,9.01,10.42,19.11,14.41,27.72,4.81,10.37,10.64,20.18,16.34,30.41,6.07,10.88,4.49,21.29,3.39,33.57-.26,2.98-.44,6.07-.5,9.19-.16,8.77.64,17.86,3.15,25.79,3.3,10.45,9.54,22.5,7.97,33.96Z"/>
                  <path class="cls-62" d="m144.5,336.65c-1.34,9.84-9.01,18.87-15.1,27-11.37,15.17-23.52,45.32-43.86,48.39-12.26,1.85-21.7-.49-29.01-5.69-27.28-19.38-24.92-78.47-29.35-107.53-1.79-11.73-4.06-23.32,2.72-33.99,6.25-9.83,9.05-18.42,12.42-29.09,3.75-11.87,9.24-19.7,19.01-27.78.31-.26.61-.51.92-.77-1.8,12.54.06,26.08,3.34,38.32,2.96,11.05,6.35,22.06,8.55,32.84,1.57,7.72,1.35,16.2,4.37,23.35,13.52-.11,25.74,5.19,37.39-4.3,7.17-5.84,12.39-13.13,17.47-20.5-.16,8.77.64,17.86,3.15,25.79,1.59,5.03,3.86,10.43,5.61,15.95,1.89,5.96,3.17,12.06,2.36,18.01Z"/>
                  <path class="cls-2" d="m144.5,336.65c-1.34,9.84-9.01,18.87-15.1,27-11.37,15.17-23.52,45.32-43.86,48.39-12.26,1.85-21.7-.49-29.01-5.69-.49-5.12-.6-10.25-.88-15.67-.57-11.2.56-22.96,5-33.39,2.24-5.27,5.56-9.63,9.22-14.24,2.59-3.27,6.19-12.2,9.38-14.11,3.48-2.08,13.42.66,17.63.61,6.94-.09,12.39-1.75,19.03-3.39,7.87-1.95,17.87-4.04,26.22-7.51,1.89,5.96,3.17,12.06,2.36,18.01Z"/>
                </g>
              </g>
            </g>
            <path class="cls-2" d="m153.09,152.58c5.41,11.13,7.12,24.88,4.92,36.96-4.35,23.82-25.13,123.23-35.65,134.5.75,3.76,11.27,1.5,15.03,1.5,14.7-21.42,44.88-97.83,38.06-163.91-1.53-14.79-25.38-32.96-33.27-31.83-7.89,1.13-19.72,5.07-19.72,5.07,8.46.72,26.87,9.93,30.65,17.7Z"/>
            <g>
              <path class="cls-52" d="m264.66,256.43c-.29,1.07-.93,2.14-2.17,3.11l-5.81-.71-4.46-.54c-.2-2.47.46-4.94,1.29-7.41.95-2.81,2.14-5.6,2.51-8.35.74.47,1.55,1.02,2.36,1.62,2.37,1.76,4.76,4.04,5.55,6.62.41,1.33,1.3,3.49.73,5.65Z"/>
              <g>
                <g>
                  <g>
                    <path class="cls-26" d="m254.12,218.95l-21.77,125.49c-.35,2.01-2.26,3.35-4.27,3l-78.6-13.64c-2.01-.35-3.35-2.26-3-4.27l21.77-125.49c.35-2.01,2.26-3.35,4.27-3l78.6,13.64c2.01.35,3.35,2.26,3,4.27Z"/>
                    <path class="cls-59" d="m254.12,218.95l-21.77,125.49c-.35,2.01-2.26,3.35-4.27,3l-75.06-13.02c-2.01-.35-3.35-2.26-3-4.27l21.77-125.49c.35-2.01,2.26-3.35,4.27-3l75.06,13.02c2.01.35,3.35,2.26,3,4.27Z"/>
                  </g>
                  <path class="cls-26" d="m226.79,252.63c-.35,2.01-2.26,3.35-4.27,3l-28.99-5.03c-2.01-.35-3.35-2.26-3-4.27l1.53-8.81c.35-2.01,2.26-3.35,4.27-3l28.99,5.03c2.01.35,3.35,2.26,3,4.27l-1.53,8.81Z"/>
                </g>
                <g>
                  <g>
                    <path class="cls-9" d="m264.55,228.8l-33.5,122.88c-.54,1.97-2.56,3.13-4.53,2.59l-76.97-20.98c-1.96-.54-3.12-2.57-2.59-4.53l33.5-122.88c.54-1.96,2.57-3.12,4.53-2.59l76.97,20.98c1.97.54,3.13,2.57,2.59,4.53Z"/>
                    <path class="cls-73" d="m264.55,228.8l-33.5,122.88c-.54,1.97-2.56,3.13-4.53,2.59l-73.5-20.04c-1.97-.54-3.12-2.57-2.59-4.53l33.5-122.88c.54-1.96,2.57-3.12,4.53-2.59l73.5,20.04c1.97.54,3.13,2.57,2.59,4.53Z"/>
                  </g>
                  <path class="cls-9" d="m234.17,259.76c-.54,1.97-2.56,3.13-4.53,2.59l-28.38-7.74c-1.97-.54-3.13-2.56-2.59-4.53l2.35-8.63c.54-1.97,2.56-3.12,4.53-2.59l28.38,7.74c1.97.54,3.13,2.56,2.59,4.53l-2.35,8.63Z"/>
                </g>
              </g>
              <g>
                <path class="cls-27" d="m150.55,270.58c-.05,1.29-.11,2.48-.19,3.55-.98,13.48-5.59,40.37-22.04,42.62-17.01,2.33-24.47-24.08-26.73-40.42-.63-4.55-6.48-61.98-4.51-78.89l52.41,18.03c.16,4.09.4,10.02.62,16.64.44,13.01.81,28.73.44,38.48Z"/>
                <path class="cls-27" d="m225.33,253.67c-23.75,23.47-59.24,9.41-88.71,19.27-10.48,3.51-32.3-18.44-35.04-6.2-1.23,5.5,3.58,37.07,5.63,41.7,6.76,15.22,28.18,17.28,50.72,6.76,18.61-8.69,51.05-22.11,67.35-33.25l.04-28.29Z"/>
                <g>
                  <path class="cls-52" d="m139.34,229.55l.45.11c-.14-.56-.29-1.11-.46-1.63.02.49.08,1.03.01,1.52Z"/>
                  <path class="cls-52" d="m150.55,270.58c-7.89,3.2-14.63,8.11-22.39,14.11,2.51-7.43,11.57-11.8,13.44-17.95,1.59-5.23.32-14.37.03-19.72-.28-5.21-.5-12.06-1.84-17.36l10.32,2.45c.44,13.01.81,28.73.44,38.48Z"/>
                </g>
                <g>
                  <path class="cls-27" d="m258.31,241.26c3.68-11.05-6.19-5.49-11.43-2.45-11.3,6.56-25.11,6.12-24.9,21.02l-6.97,5.19c-1.37,11.41,7.1,20.19,26.16,20.19,6.88,0,12.61-30.74,5.01-34.49,5.39-3.85,11.04-6.17,12.14-9.47Z"/>
                  <path class="cls-27" d="m264.35,255.56c-.07.91-.7,1.77-1.75,3.32-.83,1.23-.89.71-.89,2.24,0,.7.57,2.61.69,3.41.46,3.1-.98,5.44-4.49,7.55,1.58,2.87,1.02,6.74-3.68,8.37-.35,2.13-2.25,3.49-4.91,4.27-6.88,2.04-18.86.26-22.31-1.69l11.59-34.4c1.14,1.67,10.89.67,13.46.89.06,0,.11,0,.18.02,1.36.11,3.01.13,4.65.32,2.68.29,5.32,1,6.61,3.18.65,1.1.91,1.83.86,2.52Z"/>
                  <path class="cls-52" d="m264.35,255.56c-.07.91-.7,1.77-1.75,3.32-.83,1.23-.89.71-.89,2.24,0,.7.57,2.61.69,3.41.46,3.1-.98,5.44-4.49,7.55,1.58,2.87,1.02,6.74-3.68,8.37-.35,2.13-2.25,3.49-4.91,4.27,1.09-2.03,1.56-4.24.59-6.73,3.38-1.87,4.26-5.07,3.15-8.5,3.54-1.56,5.19-8.28,2.34-11.09.09-.07.18-.15.27-.22,2.08-1.86,1.97-5.15,1.2-8.32,2.68.29,5.32,1,6.61,3.18.65,1.1.91,1.83.86,2.52Z"/>
                </g>
                <g>
                  <path class="cls-10" d="m154.7,238.99c-.53,4.04-1.22,7.97-2.12,11.73-6.66,1.44-13.42,2.39-20.2,2.88-11.67.84-23.73.07-35.03-3.19-.33-3.12-.63-6.26-.91-9.42-1.47-16.88-2.12-34.29-1.33-51.1.5-10.7,1.88-23.56,5.62-33.24,2.54-6.56,11.56-22.33,21.7-20.64,8.48,1.41,23.49,11.14,26.49,17.47,3.54,7.49,5.69,22.07,6.21,30.65,1.03,17.03,1.91,37.04-.43,54.86Z"/>
                  <path class="cls-63" d="m154.7,238.99c-.53,4.04-1.22,7.97-2.12,11.73-6.66,1.44-13.42,2.39-20.2,2.88-11.67.84-23.73.07-35.03-3.19-.33-3.12-.63-6.26-.91-9.42,8.53,2.35,20.59,2.23,28.91,1.9,10.08-.39,20.13-.28,29.35-3.9Z"/>
                </g>
              </g>
            </g>
          </g>
        </g>
      </g>
    </g>
  </g>
</svg>